<svg width="377" height="307" viewBox="0 0 377 307" fill="none" xmlns="http://www.w3.org/2000/svg">
<path d="M0.451469 289.161C11.6986 289.161 22.9457 289.161 34.1928 289.161C34.7948 289.161 34.7948 288.277 34.1928 288.277C22.9457 288.277 11.6986 288.277 0.451469 288.277C-0.15049 288.277 -0.15049 289.161 0.451469 289.161V289.161Z" fill="#1B506F" fill-opacity="0.3"/>
<path d="M36.2204 297.705C60.0769 297.705 83.9018 297.705 107.758 297.705C108.36 297.705 108.36 296.821 107.758 296.821C83.9018 296.821 60.0769 296.821 36.2204 296.821C35.6184 296.821 35.6184 297.705 36.2204 297.705V297.705Z" fill="#1B506F" fill-opacity="0.3"/>
<path d="M127.179 289.633C150.466 289.633 173.72 289.633 197.007 289.633C220.166 289.633 243.357 289.633 266.517 289.633C279.697 289.633 292.845 289.633 306.024 289.633C306.626 289.633 306.626 288.749 306.024 288.749C282.738 288.749 259.484 288.749 236.197 288.749C213.038 288.749 189.846 288.749 166.687 288.749C153.507 288.749 140.359 288.749 127.179 288.749C126.578 288.749 126.578 289.633 127.179 289.633V289.633Z" fill="#1B506F" fill-opacity="0.3"/>
<path d="M230.399 283.446C257.456 283.446 284.512 283.446 311.569 283.446C319.267 283.446 326.934 283.446 334.633 283.446C335.235 283.446 335.235 282.562 334.633 282.562C307.577 282.562 280.52 282.562 253.464 282.562C245.765 282.562 238.098 282.562 230.399 282.562C229.797 282.562 229.797 283.446 230.399 283.446V283.446Z" fill="#1B506F" fill-opacity="0.3"/>
<path d="M284.069 299.119C308.02 299.119 332.004 299.119 355.955 299.119C362.83 299.119 369.674 299.119 376.548 299.119C377.15 299.119 377.15 298.235 376.548 298.235C352.597 298.235 328.614 298.235 304.662 298.235C297.787 298.235 290.944 298.235 284.069 298.235C283.435 298.235 283.435 299.119 284.069 299.119V299.119Z" fill="#1B506F" fill-opacity="0.3"/>
<path d="M289.486 15.7073C295.918 18.6239 297.945 25.5177 298.674 31.616C299.656 39.8061 299.435 48.2613 299.371 56.4808C299.244 74.4519 298.104 92.4229 297.058 110.364C294.999 146.218 292.908 182.072 290.849 217.925C289.676 238.106 288.504 258.286 287.364 278.467C287.332 279.027 288.282 279.027 288.314 278.467C290.437 241.818 292.56 205.169 294.651 168.549C295.696 150.313 296.742 132.106 297.819 113.87C298.864 95.7225 300.068 77.5747 300.322 59.3974C300.385 54.3302 300.385 49.263 300.258 44.1663C300.163 39.8356 300.132 35.4754 299.593 31.1741C298.769 24.899 296.583 17.8874 289.993 14.9118C289.423 14.7056 288.948 15.4716 289.486 15.7073V15.7073Z" fill="#1B506F" fill-opacity="0.3"/>
<path d="M272.853 9.87404C280.077 10.9935 286.857 13.5861 292.845 17.4749C293.352 17.799 293.827 17.033 293.32 16.7089C287.269 12.7907 280.362 10.1687 273.107 9.01968C272.505 8.90184 272.251 9.7562 272.853 9.87404V9.87404Z" fill="#1B506F" fill-opacity="0.3"/>
<path d="M244.815 1.27167C254.668 2.21441 265.281 3.4223 272.853 9.99203C273.297 10.375 273.962 9.75634 273.519 9.37335C265.757 2.62686 254.953 1.36005 244.815 0.387846C244.181 0.328925 244.213 1.21275 244.815 1.27167V1.27167Z" fill="#1B506F" fill-opacity="0.3"/>
<path d="M272.631 10.0215C271.269 19.4489 265.661 28.1398 257.329 33.649C256.822 33.9731 257.297 34.739 257.804 34.415C266.453 28.6701 272.188 19.8025 273.582 10.0215C273.677 9.46178 272.726 9.46178 272.631 10.0215V10.0215Z" fill="#1B506F" fill-opacity="0.3"/>
<path d="M244.213 0.770702C252.513 10.1392 256.981 22.1297 256.727 34.2675C256.727 34.8272 257.678 34.8272 257.678 34.2675C257.899 21.894 253.337 9.69729 244.878 0.152028C244.498 -0.289882 243.833 0.328792 244.213 0.770702V0.770702Z" fill="#1B506F" fill-opacity="0.3"/>
<path d="M249.187 11.0524C245.385 10.8167 241.868 15.2653 243.706 18.5649C245.068 21.0101 250.232 22.3064 252.038 19.6549C252.355 19.1835 251.531 18.7416 251.214 19.213C249.789 21.3342 245.353 19.8906 244.498 17.9756C243.231 15.2063 246.145 11.73 249.219 11.9362C249.789 11.9657 249.789 11.0818 249.187 11.0524V11.0524Z" fill="#1B506F" fill-opacity="0.3"/>
<path d="M243.959 0.593804C244.308 4.7183 245.005 8.81333 246.082 12.82C246.24 13.3797 247.159 13.1441 247.001 12.5843C245.955 8.63657 245.258 4.62992 244.91 0.593804C244.846 0.0340511 243.896 0.0340511 243.959 0.593804V0.593804Z" fill="#1B506F" fill-opacity="0.3"/>
<path d="M249.884 21.2459C251.975 25.665 254.066 30.0841 256.125 34.5033C256.379 35.0335 257.202 34.5622 256.949 34.0613C254.858 29.6422 252.767 25.2231 250.708 20.804C250.486 20.3032 249.662 20.7451 249.884 21.2459V21.2459Z" fill="#1B506F" fill-opacity="0.3"/>
<path d="M250.137 20.8627C251.373 24.1623 252.64 27.4619 254.573 30.4963C254.89 30.9972 255.682 30.5553 255.396 30.0544C253.686 27.0789 252.45 23.9561 251.658 20.6859C251.405 20.8332 251.119 20.9805 250.866 21.1278C250.898 21.1573 250.898 21.1573 250.929 21.1868C250.898 21.01 250.866 20.8332 250.866 20.6565C250.834 20.6859 250.834 20.7154 250.803 20.7448C251.056 20.7154 251.309 20.6859 251.563 20.6565C251.531 20.5975 254.351 18.2112 254.541 18.0639C254.288 18.005 254.002 17.9461 253.749 17.8577C254.414 20.5386 254.858 23.249 255.143 25.9888C255.46 25.9594 255.777 25.9005 256.062 25.871C255.523 23.9561 254.826 22.0706 254.002 20.244C253.781 19.7432 252.957 19.9199 253.084 20.4797C253.622 22.866 254.129 25.2523 254.668 27.6681C254.985 27.5797 255.27 27.5208 255.587 27.4324C254.89 25.4291 254.129 23.4847 253.274 21.5403C253.052 21.01 252.197 21.2162 252.355 21.776C252.989 23.9855 253.622 26.2245 254.256 28.4341C254.541 28.3162 254.826 28.1984 255.111 28.0806C254.224 26.1656 253.369 24.2507 252.482 22.3063C252.26 21.8644 251.436 22.1884 251.626 22.6598C252.894 25.8415 254.161 29.0233 255.365 32.2345C255.555 32.7648 256.442 32.5586 256.284 31.9988C255.808 30.4374 255.46 28.8465 255.301 27.2262C254.985 27.2557 254.668 27.3146 254.383 27.344C254.953 29.1706 255.523 30.9972 256.093 32.8237C256.252 33.3835 257.139 33.1478 257.012 32.588C256.505 30.5258 256.157 28.4341 255.935 26.3129C255.618 26.3424 255.301 26.4013 255.016 26.4308C255.428 28.5814 255.808 30.732 256.379 32.8532C256.505 33.3246 257.361 33.2362 257.297 32.7353C257.044 30.0839 256.569 27.4619 255.872 24.8693C255.713 24.3096 254.826 24.5453 254.953 25.105C255.175 26.0183 255.175 26.9021 255.048 27.8449C255.333 27.7565 255.65 27.6976 255.935 27.6092C255.143 26.3424 254.636 25.0461 254.446 23.6025C254.383 23.1606 253.844 22.9839 253.559 23.3668C253.337 23.6615 253.147 23.9561 252.925 24.2507C253.21 24.2507 253.464 24.2507 253.749 24.2507C253.337 23.3668 253.179 22.5419 253.21 21.5697C252.894 21.5697 252.577 21.5697 252.26 21.5697C252.197 21.776 252.133 21.9822 252.07 22.1884C252.323 22.2473 252.608 22.3063 252.862 22.3946C252.703 21.6287 252.703 21.0395 252.767 20.3029C252.45 20.3324 252.133 20.3913 251.848 20.4208C251.785 20.7448 251.753 21.0689 251.69 21.393C251.975 21.393 252.228 21.393 252.513 21.393C252.64 20.9805 252.799 20.5681 252.925 20.1556C252.703 20.0672 252.45 19.9789 252.228 19.8905C252.07 20.3619 251.911 20.8332 251.753 21.3046C252.006 21.4519 252.292 21.5992 252.545 21.7465C252.767 20.8038 253.21 20.1262 253.971 19.4486C253.717 19.3897 253.432 19.3307 253.179 19.2424C253.305 20.0378 253.21 20.6859 252.925 21.4519C253.242 21.4814 253.559 21.5403 253.844 21.5697C253.844 20.9216 253.939 20.3619 254.193 19.7432C253.876 19.7137 253.559 19.6548 253.274 19.6253C253.274 20.1556 253.305 20.6859 253.305 21.2162C253.305 21.6876 254.161 21.8349 254.224 21.3341C254.319 20.8038 254.414 20.2735 254.509 19.7432C254.193 19.7432 253.907 19.7432 253.591 19.7432C253.591 20.0378 253.559 20.3324 253.559 20.6565C253.305 21.1868 254.129 21.6287 254.383 21.0984C254.668 20.5092 254.731 20.1556 254.509 19.5075C254.383 19.1245 253.686 19.0656 253.591 19.5075C253.496 20.0378 253.401 20.5681 253.305 21.0984C253.622 21.1278 253.939 21.1868 254.224 21.2162C254.224 20.6859 254.193 20.1556 254.193 19.6253C254.193 19.1245 253.432 19.0361 253.274 19.5075C252.989 20.2146 252.894 20.8332 252.894 21.5697C252.894 22.0706 253.654 22.159 253.812 21.6876C254.161 20.7743 254.224 19.9789 254.066 19.0067C254.002 18.6531 253.496 18.6237 253.274 18.8004C252.418 19.537 251.88 20.4208 251.595 21.4814C251.5 21.8938 252.038 22.2473 252.387 21.9233C253.052 21.2457 253.274 20.5681 253.084 19.6548C253.02 19.3897 252.608 19.2424 252.387 19.3897C251.436 19.9789 251.183 20.8627 251.626 21.8349C251.785 22.159 252.26 22.0706 252.45 21.8349C252.862 21.2751 252.925 20.8038 252.703 20.1851C252.513 19.6843 251.816 19.8021 251.785 20.3029C251.69 21.0984 251.753 21.8349 251.911 22.6303C251.975 22.9544 252.482 23.0428 252.703 22.8366C253.084 22.4536 253.242 22.159 253.179 21.5992C253.115 21.0395 252.228 21.01 252.228 21.5992C252.197 22.7187 252.418 23.6909 252.894 24.722C253.052 25.0461 253.527 24.9577 253.717 24.722C253.939 24.4274 254.129 24.1328 254.351 23.8382C254.066 23.7498 253.749 23.6909 253.464 23.6025C253.686 25.2229 254.193 26.6664 255.08 28.0511C255.333 28.4635 255.903 28.2279 255.967 27.8154C256.125 26.7843 256.062 25.871 255.84 24.8399C255.523 24.9283 255.238 24.9872 254.921 25.0756C255.618 27.5797 256.062 30.1428 256.315 32.7059C256.632 32.6764 256.949 32.6175 257.234 32.588C256.695 30.4669 256.284 28.3162 255.872 26.1656C255.777 25.6648 254.89 25.7826 254.953 26.2835C255.175 28.493 255.523 30.6436 256.062 32.7943C256.379 32.7059 256.664 32.647 256.981 32.5586C256.41 30.732 255.84 28.9055 255.27 27.0789C255.111 26.6075 254.288 26.6959 254.351 27.1967C254.541 28.9055 254.858 30.5553 255.365 32.205C255.682 32.1167 255.967 32.0577 256.284 31.9694C255.048 28.7581 253.812 25.5764 252.545 22.3946C252.26 22.5125 251.975 22.6303 251.69 22.7482C252.577 24.6631 253.432 26.5781 254.319 28.5225C254.541 28.9938 255.333 28.6403 255.175 28.1689C254.541 25.9594 253.907 23.7204 253.274 21.5108C252.957 21.5992 252.672 21.6581 252.355 21.7465C253.179 23.6909 253.939 25.6648 254.668 27.6386C254.858 28.1689 255.713 27.9627 255.587 27.403C255.048 25.0166 254.541 22.6303 254.002 20.2146C253.686 20.3029 253.401 20.3619 253.084 20.4502C253.907 22.2768 254.604 24.1623 255.143 26.0772C255.27 26.5486 256.125 26.4602 256.062 25.9594C255.777 23.1312 255.301 20.3619 254.636 17.5926C254.541 17.2685 254.098 17.1801 253.844 17.3863C252.957 18.1523 251.405 19.0656 250.803 20.0672C250.517 20.5681 250.517 20.8332 250.866 21.2162C251.088 21.4519 251.436 21.3341 251.626 21.1278C251.658 21.0984 251.658 21.0689 251.69 21.0395C251.816 20.8921 251.753 20.627 251.626 20.5092C251.595 20.4797 251.595 20.4797 251.563 20.4502C251.214 20.1262 250.676 20.4502 250.771 20.8921C251.563 24.2507 252.83 27.4619 254.604 30.4669C254.89 30.3196 255.143 30.1723 255.428 30.025C253.559 27.0494 252.292 23.8382 251.088 20.5975C250.834 20.0967 249.915 20.3324 250.137 20.8627V20.8627Z" fill="#1B506F" fill-opacity="0.3"/>
<path d="M244.466 1.8607C245.385 5.01299 246.05 8.19474 246.494 11.406C246.526 11.73 246.874 11.9657 247.223 11.7889C248.268 11.2587 249.314 10.8757 250.486 10.6105C250.771 10.5516 250.929 10.1981 250.771 9.96238C249.314 7.92959 247.951 5.83789 246.684 3.71672C246.399 3.21589 245.607 3.6578 245.86 4.15863C246.716 5.89681 247.381 7.69391 247.92 9.52047C248.205 9.40263 248.49 9.28479 248.775 9.16694C248.046 7.87067 247.539 6.54494 247.223 5.10137C246.937 5.21921 246.652 5.33705 246.367 5.4549C247.539 7.04577 248.173 8.78395 248.268 10.6989C248.553 10.5811 248.807 10.4927 249.092 10.3748C248.363 9.75616 247.951 9.07856 247.73 8.16528C247.508 8.34204 247.254 8.48935 247.033 8.66611C247.698 9.13748 247.92 9.66777 247.761 10.2864C248.046 10.1981 248.363 10.1391 248.648 10.0508C247.856 9.07856 247.223 8.04744 246.652 6.95739C246.431 7.16362 246.209 7.36984 245.987 7.57607C246.874 8.10636 248.046 13.3798 250.296 10.9935C251.12 10.1097 250.644 8.99018 250.106 8.0769C249.219 6.54494 248.11 5.13083 246.969 3.77564C246.621 3.36319 245.955 3.89348 246.209 4.30593C247.444 6.2798 248.363 8.34204 248.965 10.5516C249.25 10.4338 249.535 10.3159 249.821 10.1981C249.694 9.93292 249.567 9.69723 249.44 9.43209C249.219 9.63831 248.997 9.84454 248.775 10.0508C248.775 10.0213 248.775 10.0213 248.775 9.99184C248.585 10.1391 248.363 10.2864 248.173 10.4043C248.585 10.5516 249.029 10.6989 249.44 10.8462C250.011 11.0524 250.264 10.1981 249.694 9.99184C249.282 9.84454 248.838 9.69723 248.427 9.54993C248.141 9.43209 247.825 9.7267 247.825 9.96238C247.793 12.2898 251.341 10.4338 249.25 9.25532C248.807 9.01964 248.395 9.49101 248.585 9.874C248.712 10.1391 248.838 10.3748 248.965 10.64C249.187 11.1113 249.947 10.7578 249.821 10.2864C249.187 7.98852 248.268 5.86735 246.969 3.83456C246.716 4.01132 246.462 4.18809 246.209 4.36485C246.906 5.21921 247.571 6.07357 248.205 6.95739C248.458 7.31092 248.712 7.66445 248.933 8.04744C249.124 8.31258 249.282 8.60719 249.409 8.9018C249.916 9.52047 249.535 9.874 248.236 9.93292C247.793 9.60885 247.73 8.51881 247.539 8.04744C247.286 7.45822 246.969 7.07523 246.399 6.75117C245.955 6.51548 245.575 6.98685 245.734 7.36984C246.304 8.48935 246.937 9.49101 247.73 10.4632C248.015 10.8167 248.553 10.6989 248.617 10.2275C248.743 9.1964 248.331 8.43043 247.413 7.84121C247.064 7.60553 246.621 7.98852 246.716 8.34204C246.969 9.37317 247.508 10.2275 248.331 10.9346C248.617 11.1703 249.155 11.023 249.155 10.6105C249.06 8.51881 248.363 6.63332 247.128 4.92461C246.811 4.51216 246.145 4.7773 246.272 5.27813C246.621 6.78063 247.159 8.19474 247.92 9.54993C248.173 9.99184 248.933 9.69723 248.775 9.1964C248.236 7.28146 247.508 5.42544 246.621 3.62834C246.336 3.77564 246.082 3.92294 245.797 4.07025C247.064 6.22088 248.427 8.28312 249.884 10.3159C249.979 10.1097 250.074 9.874 250.169 9.66777C248.933 9.93292 247.793 10.3454 246.684 10.9346C246.937 11.0524 247.159 11.1997 247.413 11.3176C246.969 8.01798 246.304 4.74784 245.353 1.53663C245.227 1.06526 244.308 1.30094 244.466 1.8607V1.8607Z" fill="#1B506F" fill-opacity="0.3"/>
<path d="M244.498 16.8858C243.769 15.2065 245.512 13.6451 246.906 12.8791C248.268 12.1131 249.789 11.848 251.373 11.9364C251.816 11.9658 251.943 11.465 251.721 11.1704C251.436 10.8463 251.183 10.5223 250.898 10.1982C250.644 9.90358 250.042 10.1393 250.074 10.5223C249.979 9.93304 249.092 10.2866 248.68 10.2866C247.159 10.2571 247.761 9.99196 247.698 9.19652C247.571 8.22432 246.969 7.22266 246.716 6.27992C246.335 4.89527 246.145 3.51061 246.019 2.0965C245.987 1.53675 245.036 1.53675 245.068 2.0965C245.195 3.77576 245.448 5.42556 245.924 7.04589C246.145 7.75295 246.684 8.63677 246.589 9.37329C246.557 9.69736 246.304 9.93304 246.304 10.2571C246.335 10.9347 247.064 11.3472 247.729 11.3472C248.458 11.3472 249.187 11.1999 249.947 11.2293C250.359 11.2588 250.422 11.3472 250.803 11.1115C250.929 11.0231 251.056 10.8758 251.024 10.7285C251.024 10.6696 250.993 10.5812 250.993 10.5223C250.708 10.6401 250.454 10.7285 250.169 10.8463C250.454 11.1704 250.708 11.4945 250.993 11.8185C251.119 11.5534 251.214 11.3177 251.341 11.0525C248.236 10.8758 241.868 13.2621 243.547 17.1214C243.801 17.6517 244.72 17.4161 244.498 16.8858V16.8858Z" fill="#1B506F" fill-opacity="0.3"/>
<path d="M246.304 11.9364C244.91 12.997 243.833 14.4995 243.611 16.2082C243.421 17.7107 244.403 19.0365 245.607 19.9792C248.838 22.5423 252.292 19.6846 254.319 17.2688C254.7 16.8269 254.034 16.2082 253.654 16.6502C252.007 18.624 249.123 21.5112 246.304 19.3605C245.068 18.4178 244.308 17.1215 244.72 15.619C245.068 14.3817 245.924 13.3506 247.001 12.5551C247.476 12.2016 246.779 11.5829 246.304 11.9364V11.9364Z" fill="#1B506F" fill-opacity="0.3"/>
<path d="M255.777 22.8368C255.777 22.8073 255.777 22.7779 255.745 22.7484C255.682 22.9252 255.587 23.0725 255.523 23.2493C255.555 23.2198 255.587 23.2198 255.618 23.1903C255.396 23.1314 255.175 23.0725 254.953 23.043C255.396 23.6912 255.396 24.8696 255.523 25.6061C255.682 26.5783 255.84 27.58 255.967 28.5522C256.157 30.2314 256.252 31.9107 256.315 33.6194C256.315 34.1792 257.266 34.1792 257.266 33.6194C257.202 31.5572 257.076 29.4949 256.79 27.4327C256.695 26.6372 256.569 25.8713 256.41 25.0758C256.284 24.2804 256.252 23.2493 255.777 22.5717C255.65 22.3654 255.365 22.3065 255.111 22.4244C255.08 22.4538 255.048 22.4538 255.016 22.4833C254.826 22.5717 254.731 22.8073 254.794 22.9841C254.794 23.0136 254.794 23.043 254.826 23.0725C255.016 23.6322 255.935 23.3966 255.777 22.8368V22.8368Z" fill="#1B506F" fill-opacity="0.3"/>
<path d="M244.783 2.03765C245.892 3.33392 246.716 4.77749 247.254 6.36837C247.444 6.89866 248.363 6.66297 248.173 6.13268C247.571 4.3945 246.684 2.83309 245.448 1.41897C245.1 0.947603 244.403 1.59574 244.783 2.03765V2.03765Z" fill="#1B506F" fill-opacity="0.3"/>
<path d="M219.216 6.57453C223.556 7.72349 227.928 8.72516 232.364 9.55006C232.966 9.6679 233.219 8.81354 232.617 8.6957C228.182 7.8708 223.81 6.86913 219.469 5.72017C218.899 5.5434 218.645 6.39776 219.216 6.57453V6.57453Z" fill="#1B506F" fill-opacity="0.3"/>
<path d="M208.127 20.3326C216.428 19.7139 224.633 18.2703 232.649 16.0313C233.219 15.8545 232.997 15.0002 232.395 15.177C224.475 17.3865 216.364 18.8301 208.127 19.4193C207.525 19.4782 207.525 20.362 208.127 20.3326V20.3326Z" fill="#1B506F" fill-opacity="0.3"/>
<path d="M238.288 20.7746C236.387 21.8646 234.613 23.102 232.934 24.4572C232.459 24.8401 233.156 25.4588 233.599 25.0758C235.215 23.7796 236.958 22.6011 238.763 21.5406C239.302 21.2459 238.827 20.48 238.288 20.7746V20.7746Z" fill="#1B506F" fill-opacity="0.3"/>
<path d="M238.89 30.2315C232.11 35.6817 225.299 41.1319 218.519 46.5821C218.043 46.9651 218.74 47.5838 219.184 47.2008C225.964 41.7506 232.776 36.3004 239.556 30.8501C240.031 30.4966 239.365 29.8485 238.89 30.2315V30.2315Z" fill="#1B506F" fill-opacity="0.3"/>
<path d="M241.456 36.9483C239.397 40.6014 237.306 44.284 235.247 47.9371C234.962 48.438 235.785 48.8799 236.07 48.3791C238.13 44.7259 240.221 41.0434 242.28 37.3902C242.565 36.8894 241.742 36.4475 241.456 36.9483V36.9483Z" fill="#1B506F" fill-opacity="0.3"/>
<path d="M247.032 39.0106C245.987 44.7555 245.353 50.5592 245.1 56.3924C245.068 56.9522 246.019 56.9522 246.05 56.3924C246.304 50.6476 246.937 44.9028 247.951 39.2463C248.046 38.6866 247.128 38.4509 247.032 39.0106V39.0106Z" fill="#1B506F" fill-opacity="0.3"/>
<path d="M275.42 10.7578C283.53 9.75617 290.849 14.6761 294.841 20.9218C299.561 28.2869 299.72 37.3903 299.498 45.7277C299.023 64.6119 298.167 83.4668 297.343 102.322C295.696 140.296 293.637 178.271 291.229 216.246C289.867 237.576 288.377 258.876 286.762 280.205C286.667 281.354 288.568 281.325 288.663 280.205C291.609 241.288 294.144 202.37 296.266 163.423C298.389 124.564 300.258 85.6763 301.399 46.7882C301.652 37.6849 301.589 27.6977 296.266 19.6844C291.926 13.1441 284.037 7.95907 275.451 9.01965C274.216 9.1375 274.216 10.9051 275.42 10.7578V10.7578Z" fill="#1B506F" fill-opacity="0.3"/>
<path d="M273.709 10.3748C275.99 10.4337 278.271 10.4632 280.489 10.9345C282.802 11.4354 284.576 12.6433 286.635 13.6155C287.174 13.8806 287.649 13.1146 287.11 12.8495C284.956 11.8478 283.118 10.6105 280.742 10.0802C278.429 9.57935 276.053 9.52043 273.709 9.46151C273.107 9.46151 273.107 10.3453 273.709 10.3748V10.3748Z" fill="#1B506F" fill-opacity="0.3"/>
<path d="M273.709 10.9642C280.489 11.5829 286.92 13.8808 292.433 17.6223C292.94 17.9464 293.415 17.1804 292.908 16.8563C287.237 13.0559 280.647 10.7285 273.709 10.0804C273.107 10.0215 273.107 10.9053 273.709 10.9642V10.9642Z" fill="#1B506F" fill-opacity="0.3"/>
<path d="M272.346 8.90203C275.325 9.43232 278.239 10.1394 281.091 10.9643C281.661 11.141 281.914 10.2867 281.344 10.1099C278.461 9.25556 275.546 8.57796 272.6 8.04767C271.998 7.92983 271.744 8.78419 272.346 8.90203V8.90203Z" fill="#1B506F" fill-opacity="0.3"/>
<path d="M273.044 8.81349C276.75 9.19647 280.362 9.93299 283.879 10.9936C284.449 11.1703 284.702 10.316 284.132 10.1392C280.52 9.04917 276.814 8.31265 273.044 7.92967C272.442 7.87074 272.442 8.75456 273.044 8.81349V8.81349Z" fill="#1B506F" fill-opacity="0.3"/>
<path d="M261.384 3.7166C266.263 5.30748 270.921 7.31081 275.356 9.72658C275.895 10.0212 276.37 9.25521 275.831 8.9606C271.301 6.48591 266.549 4.45312 261.606 2.86224C261.068 2.68548 260.814 3.53984 261.384 3.7166V3.7166Z" fill="#1B506F" fill-opacity="0.3"/>
<path d="M260.054 3.42202C265.028 5.13074 269.812 7.19299 274.406 9.63822C274.944 9.93283 275.42 9.16685 274.881 8.87225C270.192 6.39755 265.345 4.30584 260.276 2.56766C259.737 2.3909 259.483 3.24526 260.054 3.42202V3.42202Z" fill="#1B506F" fill-opacity="0.3"/>
<path d="M267.404 25.3704C270.287 20.6567 272.79 15.7662 274.913 10.699C275.134 10.1687 274.216 9.93299 273.994 10.4633C271.903 15.4421 269.432 20.2737 266.58 24.9285C266.295 25.3998 267.119 25.8418 267.404 25.3704V25.3704Z" fill="#1B506F" fill-opacity="0.3"/>
<path d="M273.614 10.3454C273.043 11.2293 272.632 12.1426 272.346 13.1442C272.188 13.704 273.107 13.9397 273.265 13.3799C273.519 12.4666 273.899 11.6123 274.437 10.7874C274.754 10.2865 273.931 9.84462 273.614 10.3454V10.3454Z" fill="#1B506F" fill-opacity="0.3"/>
<path d="M27.6346 161.891C27.6346 163.305 27.6346 164.72 27.6346 166.134C27.6346 166.693 28.5851 166.693 28.5851 166.134C28.5851 164.72 28.5851 163.305 28.5851 161.891C28.5851 161.332 27.6346 161.332 27.6346 161.891V161.891Z" fill="#1B506F" fill-opacity="0.3"/>
<path d="M28.1099 166.752C50.3189 166.752 72.528 166.752 94.7371 166.752C95.3391 166.752 95.3391 165.868 94.7371 165.868C72.528 165.868 50.3189 165.868 28.1099 165.868C27.5079 165.868 27.5079 166.752 28.1099 166.752V166.752Z" fill="#1B506F" fill-opacity="0.3"/>
<path d="M28.6168 162.186C50.5407 162.186 72.4963 162.186 94.4203 162.186C95.0222 162.186 95.0222 161.302 94.4203 161.302C72.4963 161.302 50.5407 161.302 28.6168 161.302C28.0148 161.302 28.0148 162.186 28.6168 162.186V162.186Z" fill="#1B506F" fill-opacity="0.3"/>
<path d="M93.9134 162.068C93.9768 163.482 93.9451 164.896 93.755 166.31C93.6916 166.87 94.6421 166.87 94.7054 166.31C94.8955 164.896 94.9589 163.482 94.8639 162.068C94.8322 161.479 93.8817 161.479 93.9134 162.068V162.068Z" fill="#1B506F" fill-opacity="0.3"/>
<path d="M65.8431 142.211C64.0373 148.575 65.0511 155.145 66.6985 161.42C66.857 161.98 67.7441 161.744 67.6173 161.184C66.0015 155.027 64.9877 148.663 66.7619 142.447C66.9203 141.887 66.0015 141.652 65.8431 142.211V142.211Z" fill="#1B506F" fill-opacity="0.3"/>
<path d="M80.9554 143.39C81.1771 144.715 81.3989 146.012 81.6207 147.337C81.7157 147.897 82.6345 147.662 82.5395 147.102C82.3177 145.776 82.0959 144.48 81.8741 143.154C81.7791 142.594 80.8603 142.83 80.9554 143.39V143.39Z" fill="#1B506F" fill-opacity="0.3"/>
<path d="M82.1594 147.485C84.7256 145.688 86.183 149.194 86.2146 151.02C86.2463 153.318 85.0741 155.38 82.3811 155.557C81.7792 155.587 81.7792 156.47 82.3811 156.441C86.0562 156.235 87.4502 153.23 87.1017 150.166C86.8483 147.809 84.4088 144.833 81.6841 146.748C81.1772 147.072 81.6524 147.838 82.1594 147.485V147.485Z" fill="#1B506F" fill-opacity="0.3"/>
<path d="M81.9693 155.852C81.7792 157.619 81.4307 159.328 80.9872 161.066C80.8287 161.626 81.7475 161.862 81.9059 161.302C82.3812 159.505 82.7297 157.708 82.9514 155.852C82.9831 155.262 82.0327 155.292 81.9693 155.852V155.852Z" fill="#1B506F" fill-opacity="0.3"/>
<path d="M82.8247 148.869C83.8385 148.103 84.2504 150.519 84.282 150.843C84.3137 151.226 84.2504 151.639 84.1553 152.022C83.9019 152.935 83.3633 153.672 82.6029 154.261C82.1277 154.614 82.793 155.233 83.2682 154.879C84.7256 153.76 85.486 151.963 85.1691 150.225C84.9474 148.928 83.7118 147.043 82.1593 148.251C81.6841 148.604 82.3494 149.223 82.8247 148.869V148.869Z" fill="#1B506F" fill-opacity="0.3"/>
<path d="M82.0327 148.133C81.9059 150.195 81.9376 152.258 82.096 154.349C82.1277 154.909 83.0782 154.909 83.0465 154.349C82.8881 152.287 82.8564 150.225 82.9831 148.133C83.0148 147.544 82.0643 147.544 82.0327 148.133V148.133Z" fill="#1B506F" fill-opacity="0.3"/>
<path d="M67.4272 143.213C71.2607 144.362 75.2527 144.657 79.2446 144.097C79.8466 144.009 79.5931 143.154 78.9912 143.243C75.1576 143.773 71.3558 143.478 67.6807 142.359C67.1104 142.182 66.8569 143.036 67.4272 143.213V143.213Z" fill="#1B506F" fill-opacity="0.3"/>
<path d="M69.6132 140.974C67.744 139.884 69.9301 137.498 70.2469 136.113C70.5637 134.728 69.7083 134.051 69.138 132.872C68.3143 131.164 70.2152 129.897 70.5003 128.247C70.7538 126.803 69.4865 125.596 71.1973 124.417C71.6726 124.093 71.229 123.327 70.7221 123.651C69.6766 124.358 69.043 125.448 69.2647 126.686C69.4232 127.599 69.6766 128.07 69.2014 129.013C68.9796 129.484 68.6628 129.897 68.4093 130.368C68.0925 131.016 67.8074 131.694 67.9024 132.43C67.9658 133.167 68.3776 133.491 68.7578 134.08C69.8667 135.818 68.8529 136.702 68.2192 138.352C67.744 139.589 67.8707 140.945 69.138 141.681C69.6449 142.035 70.1202 141.269 69.6132 140.974V140.974Z" fill="#1B506F" fill-opacity="0.3"/>
<path d="M75.2527 119.851C74.7775 121 74.1755 122.296 74.0805 123.533C73.9854 124.653 74.8725 125.271 75.1577 126.273C75.5062 127.481 74.2706 128.483 74.1438 129.661C73.9854 131.193 75.4428 132.195 74.0171 133.668C73.6052 134.08 74.2706 134.728 74.6824 134.286C75.4111 133.55 75.7913 132.666 75.6646 131.664C75.5695 130.928 74.9993 130.309 75.126 129.514C75.221 128.895 75.7279 128.335 75.9497 127.746C76.3299 126.803 76.1715 126.067 75.6646 125.213C74.6507 123.445 75.4745 121.825 76.1715 120.086C76.3933 119.556 75.4745 119.32 75.2527 119.851V119.851Z" fill="#1B506F" fill-opacity="0.3"/>
<path d="M79.9416 128.63C78.4525 130.073 77.7555 132.047 78.1674 134.051C78.2941 134.699 78.6426 135.347 78.6743 136.025C78.7377 136.879 78.1674 137.291 77.9139 138.028C77.5654 138.971 78.801 140.326 78.0407 141.062C77.6288 141.475 78.2941 142.093 78.706 141.681C79.1812 141.21 79.3079 140.679 79.1812 140.031C79.0545 139.324 78.6109 138.823 78.9278 138.087C79.1179 137.645 79.498 137.409 79.6248 136.908C79.8782 135.789 79.2446 134.728 79.0545 133.638C78.7694 132.018 79.403 130.427 80.6069 129.249C81.0505 128.836 80.3535 128.217 79.9416 128.63V128.63Z" fill="#1B506F" fill-opacity="0.3"/>
<path d="M33.3691 161.302C33.2741 160.153 33.2424 159.033 33.2741 157.884C33.1157 158.032 32.9573 158.179 32.7988 158.326C37.8996 157.855 43.0321 157.619 48.1646 157.56C50.6358 157.531 53.107 157.56 55.5465 157.649C56.1485 157.678 56.7821 157.678 57.3841 157.708C57.7959 157.737 58.8415 157.59 59.2216 157.796C60.1404 158.297 59.7602 161.007 59.7919 161.862C59.8236 162.421 60.7741 162.421 60.7424 161.862C60.7107 160.654 60.9325 159.063 60.584 157.914C60.4256 157.413 60.2355 157.148 59.6652 156.942C58.5246 156.559 56.7188 156.765 55.5148 156.735C54.0892 156.677 52.6318 156.647 51.2061 156.647C45.0598 156.588 38.8818 156.853 32.7672 157.413C32.5137 157.443 32.2919 157.59 32.2919 157.855C32.2286 159.004 32.2603 160.123 32.387 161.272C32.4503 161.862 33.4008 161.862 33.3691 161.302V161.302Z" fill="#1B506F" fill-opacity="0.3"/>
<path d="M41.2896 157.059C41.2896 156.529 41.0678 155.41 41.3213 154.938C41.7331 154.084 43.444 154.32 44.2677 154.29C46.0736 154.231 47.8478 154.143 49.6536 154.084C51.3328 154.025 53.0119 153.966 54.7228 153.907C55.8 153.878 57.0039 153.583 57.4474 154.703C57.7009 155.351 57.6058 156.352 57.6692 157.03C57.7326 157.59 58.683 157.59 58.6197 157.03C58.4929 155.852 58.8731 153.377 57.2256 152.964C56.3069 152.729 55.0396 152.994 54.0574 153.023C52.5684 153.082 51.111 153.141 49.622 153.2C47.024 153.288 44.1727 153.082 41.6381 153.524C39.8322 153.819 40.3391 155.793 40.3075 157.059C40.3391 157.619 41.2896 157.619 41.2896 157.059V157.059Z" fill="#1B506F" fill-opacity="0.3"/>
<path d="M51.6179 157.619C52.1565 158.975 52.3466 160.33 52.1565 161.744C52.0931 162.304 53.0436 162.304 53.1069 161.744C53.3287 160.241 53.1386 158.798 52.5367 157.384C52.3149 156.853 51.3961 157.089 51.6179 157.619V157.619Z" fill="#1B506F" fill-opacity="0.3"/>
<path d="M51.6813 153.789C52.2516 154.997 52.3783 156.264 52.1249 157.56C51.9981 158.12 52.9169 158.356 53.0436 157.796C53.3604 156.264 53.1704 154.791 52.505 153.347C52.2516 152.817 51.4595 153.259 51.6813 153.789V153.789Z" fill="#1B506F" fill-opacity="0.3"/>
<path d="M55.2613 153.524C55.4831 154.585 55.7048 155.675 55.8316 156.736C55.8949 157.295 56.8454 157.295 56.782 156.736C56.6236 155.587 56.4335 154.408 56.1801 153.289C56.0533 152.729 55.1346 152.965 55.2613 153.524V153.524Z" fill="#1B506F" fill-opacity="0.3"/>
<path d="M56.8772 157.767C57.3524 158.945 57.4474 160.124 57.1623 161.332C57.0356 161.891 57.9227 162.127 58.0811 161.567C58.4296 160.212 58.3345 158.827 57.7959 157.531C57.5742 157.001 56.6554 157.237 56.8772 157.767V157.767Z" fill="#1B506F" fill-opacity="0.3"/>
<path d="M22.5338 81.8466C22.5338 83.0545 22.5972 84.2624 22.6922 85.4408C22.7556 86.0006 23.706 86.0006 23.6427 85.4408C23.516 84.2329 23.4526 83.0545 23.4843 81.8466C23.4843 81.2869 22.5338 81.2869 22.5338 81.8466V81.8466Z" fill="#1B506F" fill-opacity="0.3"/>
<path d="M23.4209 86.413C46.2636 86.413 69.0747 86.413 91.9174 86.413C92.5193 86.413 92.5193 85.5292 91.9174 85.5292C69.0747 85.5292 46.2636 85.5292 23.4209 85.5292C22.8189 85.5292 22.8189 86.413 23.4209 86.413V86.413Z" fill="#1B506F" fill-opacity="0.3"/>
<path d="M23.2943 82.1704C46.137 82.1704 68.948 82.1704 91.7907 82.1704C92.3927 82.1704 92.3927 81.2866 91.7907 81.2866C68.948 81.2866 46.137 81.2866 23.2943 81.2866C22.6606 81.2866 22.6606 82.1704 23.2943 82.1704V82.1704Z" fill="#1B506F" fill-opacity="0.3"/>
<path d="M91.6006 81.8466C91.6006 83.2313 91.6006 84.5865 91.6006 85.9711C91.6006 86.5309 92.551 86.5309 92.551 85.9711C92.551 84.5865 92.551 83.2313 92.551 81.8466C92.551 81.2869 91.6006 81.2869 91.6006 81.8466V81.8466Z" fill="#1B506F" fill-opacity="0.3"/>
<path d="M26.0189 69.1194C27.0644 73.2439 28.1099 77.3684 29.2187 81.4634C29.3772 82.0231 30.2959 81.7875 30.1375 81.2277C29.0287 77.1327 27.9831 73.0082 26.9376 68.8837C26.8109 68.3239 25.8921 68.5596 26.0189 69.1194V69.1194Z" fill="#1B506F" fill-opacity="0.3"/>
<path d="M26.4624 69.0606C28.8069 69.0017 31.1197 68.9133 33.4324 68.766C34.5413 68.7071 35.6502 68.6187 36.7591 68.5303C38.0263 68.4125 39.4203 68.1474 40.6243 68.6776C41.1629 68.9133 41.6698 68.1474 41.0995 67.9117C39.1352 67.0278 36.6957 67.6465 34.6047 67.7938C31.88 67.9706 29.1554 68.1179 26.399 68.1768C25.8288 68.1768 25.8288 69.0606 26.4624 69.0606V69.0606Z" fill="#1B506F" fill-opacity="0.3"/>
<path d="M40.3074 68.3536C39.9272 72.7138 39.1035 77.015 37.8996 81.2574C37.7412 81.8171 38.6599 82.0528 38.8183 81.493C40.0539 77.1918 40.8777 72.8021 41.2579 68.3536C41.2895 67.7938 40.3391 67.7938 40.3074 68.3536V68.3536Z" fill="#1B506F" fill-opacity="0.3"/>
<path d="M29.3454 68C27.5079 65.9672 26.0505 63.8755 25.1317 61.3418C24.3397 59.1912 23.8961 56.9522 23.4526 54.7132C23.2625 54.89 23.0724 55.0667 22.8823 55.2435C28.7118 57.0995 31.6265 62.373 32.7671 67.6759C32.8938 68.2356 33.8126 68 33.6859 67.4402C32.482 61.8132 29.2821 56.363 23.1358 54.4186C22.7556 54.3007 22.5021 54.6543 22.5655 54.9489C23.0724 57.512 23.5793 60.075 24.5931 62.4908C25.5436 64.7593 27.001 66.7331 28.6801 68.5892C29.0603 69.0605 29.7256 68.4419 29.3454 68V68Z" fill="#1B506F" fill-opacity="0.3"/>
<path d="M32.1652 62.4026C31.3414 59.6628 34.0978 57.6594 35.6819 55.715C37.2026 53.859 38.4382 51.8262 39.452 49.6756C39.1669 49.6461 38.8818 49.6167 38.5966 49.5578C40.149 55.4794 41.6381 62.5794 36.6957 67.5288C36.2838 67.9412 36.9492 68.5599 37.361 68.1474C42.5252 62.9329 41.1312 55.5677 39.4837 49.3221C39.3887 48.9685 38.7867 48.8507 38.6283 49.2042C37.361 51.9735 35.6502 54.4482 33.5592 56.7462C32.0068 58.4254 30.5811 60.3109 31.2781 62.6383C31.4048 63.1686 32.3236 62.9624 32.1652 62.4026V62.4026Z" fill="#1B506F" fill-opacity="0.3"/>
<path d="M54.4693 81.4635C54.4693 79.7842 54.4693 78.1049 54.4693 76.4551C54.4693 75.8954 53.5189 75.8954 53.5189 76.4551C53.5189 78.1344 53.5189 79.8137 53.5189 81.4635C53.5189 82.0527 54.4693 82.0527 54.4693 81.4635V81.4635Z" fill="#1B506F" fill-opacity="0.3"/>
<path d="M53.9941 76.7793C65.4946 76.7793 76.9635 76.7793 88.4641 76.7793C89.066 76.7793 89.066 75.8955 88.4641 75.8955C76.9635 75.8955 65.4946 75.8955 53.9941 75.8955C53.3921 75.8955 53.3921 76.7793 53.9941 76.7793V76.7793Z" fill="#1B506F" fill-opacity="0.3"/>
<path d="M88.1155 76.7202C88.1155 78.3406 88.1155 79.9904 88.1155 81.6107C88.1155 82.1705 89.0659 82.1705 89.0659 81.6107C89.0659 79.9904 89.0659 78.3406 89.0659 76.7202C89.0659 76.131 88.1155 76.131 88.1155 76.7202V76.7202Z" fill="#1B506F" fill-opacity="0.3"/>
<path d="M60.8374 76.1902C60.8374 75.218 60.8374 74.2164 60.8374 73.2442C60.8374 72.6844 59.887 72.6844 59.887 73.2442C59.887 74.2164 59.887 75.218 59.887 76.1902C59.887 76.7794 60.8374 76.7794 60.8374 76.1902V76.1902Z" fill="#1B506F" fill-opacity="0.3"/>
<path d="M60.3621 73.3028C69.3915 73.3028 78.4525 73.3028 87.4819 73.3028C88.0839 73.3028 88.0839 72.419 87.4819 72.419C78.4525 72.419 69.3915 72.419 60.3621 72.419C59.7602 72.419 59.7602 73.3028 60.3621 73.3028V73.3028Z" fill="#1B506F" fill-opacity="0.3"/>
<path d="M87.165 72.8609C87.165 73.9804 87.165 75.0999 87.165 76.2194C87.165 76.7792 88.1155 76.7792 88.1155 76.2194C88.1155 75.0999 88.1155 73.9804 88.1155 72.8609C88.1155 72.2717 87.165 72.2717 87.165 72.8609V72.8609Z" fill="#1B506F" fill-opacity="0.3"/>
<path d="M68.1876 72.478C68.1876 70.9461 68.1876 69.3846 68.1876 67.8527C68.1876 67.2929 67.2371 67.2929 67.2371 67.8527C67.2371 69.3846 67.2371 70.9461 67.2371 72.478C67.2371 73.0378 68.1876 73.0378 68.1876 72.478V72.478Z" fill="#1B506F" fill-opacity="0.3"/>
<path d="M68.1243 68.0294C74.1755 68.0294 80.1951 68.0294 86.2464 68.0294C86.8483 68.0294 86.8483 67.1455 86.2464 67.1455C80.1951 67.1455 74.1755 67.1455 68.1243 67.1455C67.5223 67.1455 67.5223 68.0294 68.1243 68.0294V68.0294Z" fill="#1B506F" fill-opacity="0.3"/>
<path d="M86.0562 67.44C86.0562 69.1193 86.0562 70.7986 86.0562 72.4484C86.0562 73.0081 87.0066 73.0081 87.0066 72.4484C87.0066 70.7691 87.0066 69.0898 87.0066 67.44C87.0066 66.8803 86.0562 66.8803 86.0562 67.44V67.44Z" fill="#1B506F" fill-opacity="0.3"/>
<path d="M79.7198 67.8233C80.1634 69.4142 80.2584 70.9756 80.1 72.596C80.0366 73.1557 80.9871 73.1557 81.0505 72.596C81.2406 70.8873 81.1138 69.2375 80.6386 67.5877C80.4802 67.0279 79.5614 67.2636 79.7198 67.8233V67.8233Z" fill="#1B506F" fill-opacity="0.3"/>
<path d="M82.5711 68.0884C82.7296 69.3847 82.7929 70.6515 82.7296 71.9478C82.6979 72.5075 83.6483 72.5075 83.68 71.9478C83.7434 70.6515 83.7117 69.3847 83.5216 68.0884C83.4582 67.5287 82.5078 67.5287 82.5711 68.0884V68.0884Z" fill="#1B506F" fill-opacity="0.3"/>
<path d="M78.7061 73.0968C78.8645 74.069 78.8328 75.0706 78.7061 76.0723C78.6427 76.6321 79.5932 76.6321 79.6566 76.0723C79.815 75.0117 79.7833 73.9511 79.6249 72.8611C79.5298 72.3013 78.6111 72.537 78.7061 73.0968V73.0968Z" fill="#1B506F" fill-opacity="0.3"/>
<path d="M81.1138 72.9492C81.3039 73.7447 81.2406 74.5106 80.9554 75.3061C80.7653 75.8364 81.6841 76.0721 81.8742 75.5418C82.2227 74.6285 82.2544 73.6857 82.0326 72.7135C81.9059 72.1832 80.9871 72.4189 81.1138 72.9492V72.9492Z" fill="#1B506F" fill-opacity="0.3"/>
<path d="M73.9537 76.3375C74.1438 78.1051 74.1755 79.8433 74.0488 81.6109C74.0171 82.1707 74.9675 82.1707 74.9992 81.6109C75.1259 79.8433 75.0943 78.1051 74.9042 76.3375C74.8408 75.7777 73.8904 75.7777 73.9537 76.3375V76.3375Z" fill="#1B506F" fill-opacity="0.3"/>
<path d="M83.7119 76.4551C83.9336 78.1049 83.9336 79.7253 83.6485 81.3751C83.5534 81.9348 84.4722 82.1705 84.5673 81.6108C84.8524 79.902 84.9158 78.1933 84.6623 76.4551C84.5989 75.8954 83.6485 75.8954 83.7119 76.4551V76.4551Z" fill="#1B506F" fill-opacity="0.3"/>
<path d="M118.023 27.8744C118.023 33.0006 118.023 38.1267 118.023 43.2529C118.023 43.8126 118.974 43.8126 118.974 43.2529C118.974 38.1267 118.974 33.0006 118.974 27.8744C118.974 27.2852 118.023 27.2852 118.023 27.8744V27.8744Z" fill="#1B506F" fill-opacity="0.3"/>
<path d="M104.717 43.9012C113.429 43.9012 122.174 43.9012 130.886 43.9012C131.488 43.9012 131.488 43.0174 130.886 43.0174C122.174 43.0174 113.429 43.0174 104.717 43.0174C104.115 43.0174 104.115 43.9012 104.717 43.9012V43.9012Z" fill="#1B506F" fill-opacity="0.3"/>
<path d="M126.292 44.078C126.292 49.1157 126.292 54.183 126.292 59.2207C126.292 59.7805 127.243 59.7805 127.243 59.2207C127.243 54.183 127.243 49.1157 127.243 44.078C127.243 43.5182 126.292 43.5182 126.292 44.078V44.078Z" fill="#1B506F" fill-opacity="0.3"/>
<path d="M266.992 275.698C266.168 276.964 267.341 278.438 270.034 283.976C274.152 292.431 273.962 294.376 273.297 295.672C272.188 297.793 269.812 298.058 270.034 299.089C270.35 300.592 275.578 301.741 277.415 299.885C278.239 299.06 278.112 297.911 277.859 295.643C276.718 286.245 276.497 285.567 276.117 282.709C275.451 277.642 275.8 276.346 274.374 275.226C272.251 273.665 268.133 273.989 266.992 275.698Z" fill="#2A2A34" stroke="#2A2A34" stroke-width="3"/>
<path d="M316.289 274.401C318.665 272.84 322.816 274.49 324.97 276.434C326.776 278.025 326.364 279.086 328.455 280.47C328.93 280.794 331.116 282.238 333.873 282.091C335.995 281.973 336.407 281.001 337.991 281.295C339.1 281.472 339.576 282.061 341.698 283.917C345.025 286.863 346.26 287.541 346.039 287.953C345.817 288.336 344.771 288.13 340.177 287.541C336.819 287.099 335.077 286.893 333.873 286.834C331.116 286.716 330.99 287.04 326.934 287.128C322.752 287.246 320.63 287.246 319.109 286.51C315.719 284.86 314.832 281.207 314.769 280.853C314.673 280.382 313.755 276.051 316.289 274.401Z" fill="#2A2A34" stroke="#2A2A34" stroke-width="3"/>
<path d="M270.255 263.177C272.315 263.236 273.202 265.475 275.039 267.419C279.823 272.545 288.156 272.722 294.999 272.869C307.925 273.134 311.41 268.568 317.588 271.661C320.978 273.37 324.178 276.876 324.115 280.735C324.02 285.773 318.349 289.338 314.357 290.634C310.808 291.783 308.876 291.076 299.149 289.426C283.498 286.745 280.394 287.158 274.406 283.976C270.984 282.149 267.911 279.822 265.947 276.316C265.123 274.843 263.824 272.398 264.426 269.452C265.028 266.358 267.689 263.088 270.255 263.177Z" fill="#2A2A34" stroke="#2A2A34" stroke-width="3"/>
<path d="M315.846 271.868C316.511 271.013 319.141 273.164 321.929 272.074C324.305 271.131 325.382 268.391 326.047 266.624C327.283 263.471 326.459 262.352 327.79 261.173C329.057 260.025 330.166 260.761 333.873 259.759C336.376 259.082 338.403 258.551 339.512 256.931C340.399 255.635 339.766 254.987 340.368 251.687C340.558 250.685 341.286 246.679 342.332 246.649C343.092 246.62 344.011 248.741 344.074 250.685C344.106 251.481 343.979 252.041 342.775 255.723C342.015 258.021 341.635 259.17 341.476 259.347C339.924 261.144 337.865 260.26 333.873 261.969C331.94 262.794 330.071 263.589 329.089 265.386C328.202 267.036 328.962 267.773 328.012 270.218C327.125 272.457 325.699 273.783 325.414 274.048C324.368 275.02 322.246 276.935 319.774 276.464C316.986 275.992 315.18 272.722 315.846 271.868Z" fill="#2A2A34" stroke="#2A2A34" stroke-width="3"/>
<path d="M308.464 285.802C308.084 286.51 307.006 288.542 307.387 291.046C307.767 293.61 309.478 295.819 310.65 297.292C312.266 299.384 313.216 299.826 313.026 300.71C312.678 302.654 307.989 302.801 308.02 303.744C308.084 304.687 312.836 305.158 316.479 304.952C319.204 304.805 319.838 304.363 320.186 303.95C320.947 302.949 320.091 301.77 319.743 299.119C319.489 297.233 319.679 295.907 319.964 293.668C320.44 289.986 321.2 289.75 321.485 287.01C321.707 284.83 322.087 281.207 320.186 279.94C317.588 278.231 310.967 281.207 308.464 285.802Z" fill="#2A2A34" stroke="#2A2A34" stroke-width="3"/>
<path d="M243.991 267.213C244.498 269.599 247.286 271.102 251.373 272.663C255.713 274.342 268.006 279.056 270.255 275.904C270.826 275.108 270.635 273.989 270.255 273.282C269.305 271.602 266.707 271.779 262.208 271.072C258.279 270.453 254.636 269.894 250.929 268.038C247.508 266.358 245.48 264.326 244.403 265.003C243.642 265.504 243.959 267.065 243.991 267.213Z" fill="#2A2A34" stroke="#2A2A34" stroke-width="3"/>
<path d="M239.049 256.813C240.031 258.345 241.235 259.73 242.66 260.967C243.104 261.35 243.769 260.732 243.326 260.349C241.963 259.17 240.823 257.845 239.872 256.371C239.555 255.871 238.732 256.313 239.049 256.813V256.813Z" fill="#2A2A34"/>
<path d="M234.962 259.023C235.944 260.142 237.211 260.938 238.637 261.409C239.207 261.615 239.46 260.761 238.89 260.555C237.591 260.113 236.482 259.376 235.627 258.404C235.247 257.962 234.581 258.581 234.962 259.023V259.023Z" fill="#2A2A34"/>
<path d="M235.12 264.827C236.007 264.915 236.894 264.974 237.813 265.062C238.415 265.121 238.415 264.237 237.813 264.178C236.926 264.09 236.039 264.031 235.12 263.943C234.518 263.884 234.518 264.768 235.12 264.827V264.827Z" fill="#2A2A34"/>
<path d="M261.131 258.935C260.022 259.347 258.279 260.113 256.569 261.557C255.111 262.794 253.717 263.972 253.527 265.593C253.179 268.539 257.044 271.338 260.054 272.457C260.592 272.663 266.96 274.902 270.477 271.455C272.853 269.099 272.315 265.74 272.22 265.21C271.491 260.82 267.245 258.758 266.802 258.552C265.725 257.196 264.616 255.871 263.539 254.516C262.747 255.989 261.955 257.462 261.131 258.935Z" fill="#2A2A34" stroke="#2A2A34" stroke-width="3"/>
<path d="M258.184 262.912C258.66 264.178 259.927 265.033 261.384 265.003C261.986 264.974 261.986 264.09 261.384 264.119C260.37 264.149 259.42 263.56 259.103 262.676C258.881 262.146 257.963 262.381 258.184 262.912V262.912Z" fill="white"/>
<path d="M253.559 265.003C253.844 265.003 253.971 265.092 254.002 265.298C253.907 265.386 253.844 265.504 253.749 265.593C253.559 265.651 253.527 265.563 253.464 265.504C253.432 265.475 253.464 265.445 253.432 265.475C253.4 265.504 253.4 265.593 253.369 265.651C253.559 265.563 253.749 265.445 253.939 265.357C253.971 265.386 253.971 265.386 253.939 265.357C253.971 265.357 253.971 265.386 253.971 265.386C254.002 265.416 253.971 265.416 253.971 265.357C254.002 265.386 254.002 265.386 253.971 265.357C253.939 265.121 253.622 265.003 253.4 265.062C253.147 265.121 253.02 265.357 253.084 265.593C253.147 265.887 253.4 266.123 253.717 266.211C253.971 266.3 254.193 266.123 254.288 265.917C254.414 265.651 254.446 265.357 254.288 265.121C254.129 264.856 253.781 264.709 253.464 264.797C253.147 264.885 252.989 265.21 253.052 265.504C253.147 265.799 253.464 266.005 253.781 265.917C254.034 265.858 254.193 265.622 254.097 265.386C254.066 265.092 253.812 264.944 253.559 265.003V265.003Z" fill="white"/>
<path d="M253.369 265.769C253.844 267.272 255.745 268.008 257.202 267.301C257.741 267.036 257.266 266.27 256.727 266.535C255.777 266.977 254.573 266.447 254.288 265.534C254.129 264.974 253.21 265.209 253.369 265.769V265.769Z" fill="white"/>
<path d="M39.8005 240.905C40.4975 241.023 41.5113 241.199 42.7786 241.347C48.8298 242.172 53.1386 242.142 58.4612 242.201C61.6611 242.231 66.3817 242.319 72.3062 242.525C78.6109 242.113 84.9473 241.7 91.252 241.258C82.5395 240.433 73.8269 239.579 65.1144 238.754C56.6553 239.461 48.2279 240.168 39.8005 240.905Z" fill="#1B506F"/>
<path d="M58.4295 259.2C60.2354 259.553 62.0413 259.907 63.8471 260.26C70.1202 259.907 76.9952 259.023 84.2503 257.255C85.6443 256.931 87.0067 256.578 88.3056 256.195C78.3575 257.197 68.4093 258.198 58.4295 259.2Z" fill="#1B506F"/>
<path d="M40.2123 282.444C40.244 284.919 40.2757 287.423 40.3074 289.898C54.9445 291.636 69.6132 293.374 84.2503 295.112C84.2503 292.638 84.2503 290.134 84.2503 287.659C93.2163 283.947 102.151 280.235 111.117 276.523C108.614 276.169 106.111 275.816 103.608 275.462C103.323 275.875 103.038 276.287 102.784 276.729C91.9174 279.852 81.0504 283.004 70.1835 286.127C60.2037 284.89 50.1922 283.652 40.2123 282.444Z" fill="#1B506F"/>
<path d="M23.9278 248.771C34.8898 250.008 45.8834 251.245 56.8454 252.483C66.0332 252.277 75.6962 251.717 85.7711 250.686C88.464 250.421 91.0936 250.097 93.6916 249.772C90.9352 249.006 88.2106 248.211 85.4542 247.445C79.9733 247.916 74.4606 248.388 68.9796 248.859C58.5562 248.182 48.1645 247.475 37.7411 246.797C33.1473 247.445 28.5217 248.093 23.9278 248.771Z" fill="#1B506F"/>
<path d="M65.0827 266.83C68.4727 267.301 71.8943 267.773 75.2843 268.244C84.6622 265.976 94.0084 263.737 103.386 261.468C100.281 261.026 97.2082 260.614 94.1034 260.172C84.4087 262.411 74.7457 264.62 65.0827 266.83Z" fill="#1B506F"/>
<path d="M26.0822 274.313C40.5291 276.228 54.9445 278.172 69.3914 280.087C73.8586 279.203 78.5159 278.172 83.3632 276.935C90.0164 275.256 96.1944 273.4 101.929 271.514C99.7745 271.161 97.6201 270.807 95.4657 270.454C88.7175 272.192 81.9692 273.93 75.1893 275.668C63.2135 274.136 51.2377 272.634 39.2619 271.102C34.8897 272.192 30.486 273.252 26.0822 274.313Z" fill="#1B506F"/>
<path d="M37.8046 241.759C37.8046 243.527 37.8046 245.324 37.8046 247.092C37.8046 247.651 38.755 247.651 38.755 247.092C38.755 245.324 38.755 243.527 38.755 241.759C38.755 241.199 37.8046 241.199 37.8046 241.759V241.759Z" fill="#2A2A34"/>
<path d="M38.4381 241.936C49.6536 242.289 60.9007 242.613 72.1161 242.967C72.718 242.996 72.718 242.113 72.1161 242.083C60.9007 241.73 49.6536 241.406 38.4381 241.052C37.8045 241.023 37.8045 241.906 38.4381 241.936V241.936Z" fill="#2A2A34"/>
<path d="M38.4381 247.769C48.6397 247.946 58.8413 248.388 69.0113 249.095C69.6132 249.124 69.6132 248.24 69.0113 248.211C58.8413 247.533 48.6397 247.091 38.4381 246.885C37.8045 246.885 37.8045 247.769 38.4381 247.769V247.769Z" fill="#2A2A34"/>
<path d="M72.4329 243.085C78.9277 242.554 85.4542 242.201 91.949 241.995C92.551 241.965 92.551 241.081 91.949 241.111C85.4225 241.288 78.9277 241.671 72.4329 242.201C71.8309 242.23 71.7993 243.114 72.4329 243.085V243.085Z" fill="#2A2A34"/>
<path d="M69.1697 249.124C76.8051 248.417 84.4721 247.74 92.1075 247.033C92.7095 246.974 92.7095 246.09 92.1075 246.149C84.4721 246.856 76.8051 247.533 69.1697 248.241C68.5678 248.299 68.5678 249.183 69.1697 249.124V249.124Z" fill="#2A2A34"/>
<path d="M71.9578 242.967C71.736 243.291 71.5776 243.615 71.5142 243.998C71.4192 244.646 71.7043 245.147 71.3558 245.795C70.9439 246.62 70.6905 247.268 70.8489 248.181C70.9439 248.741 71.8627 248.505 71.7677 247.946C71.6093 246.973 72.1479 246.532 72.4647 245.736C72.7498 244.911 72.2112 244.204 72.7815 243.409C73.0983 242.937 72.2746 242.466 71.9578 242.967V242.967Z" fill="#2A2A34"/>
<path d="M38.5649 241.671C47.1191 240.581 55.7049 239.815 64.3541 239.314C64.956 239.285 64.956 238.401 64.3541 238.43C55.6415 238.931 46.9607 239.726 38.3431 240.816C37.7095 240.905 37.963 241.73 38.5649 241.671V241.671Z" fill="#2A2A34"/>
<path d="M63.7204 239.343C72.9399 239.402 82.1276 240.168 91.1887 241.641C91.7906 241.73 92.0441 240.875 91.4421 240.787C82.286 239.285 73.0032 238.489 63.7204 238.43C63.1184 238.46 63.1184 239.343 63.7204 239.343V239.343Z" fill="#2A2A34"/>
<path d="M40.3075 244.676C43.0321 245.265 45.8835 244.646 48.6715 244.676C51.7763 244.705 54.8812 245.029 57.986 245.383C58.588 245.442 58.588 244.558 57.986 244.499C55.1029 244.204 52.1882 243.88 49.2735 243.821C46.4538 243.762 43.3489 244.44 40.5609 243.851C39.9589 243.674 39.7055 244.528 40.3075 244.676V244.676Z" fill="#1B506F" fill-opacity="0.3"/>
<path d="M52.8535 246.591C57.7009 246.738 62.5799 246.944 67.4272 247.209C68.0292 247.239 68.0292 246.355 67.4272 246.326C62.5799 246.06 57.7009 245.854 52.8535 245.707C52.2515 245.677 52.2515 246.561 52.8535 246.591V246.591Z" fill="#1B506F" fill-opacity="0.3"/>
<path d="M60.774 245.029C63.562 245.235 66.3817 245.5 69.1697 245.824C69.7717 245.883 69.7717 245 69.1697 244.941C66.3817 244.617 63.5937 244.351 60.774 244.145C60.1403 244.086 60.172 244.97 60.774 245.029V245.029Z" fill="#1B506F" fill-opacity="0.3"/>
<path d="M74.3022 245.471C76.52 245.766 78.6743 245.265 80.8604 244.97C83.4583 244.587 86.0879 244.293 88.7175 244.145C89.3195 244.116 89.3195 243.232 88.7175 243.262C86.5948 243.379 84.4722 243.615 82.3811 243.88C79.8466 244.204 77.1536 244.97 74.5874 244.646C73.9537 244.528 73.7003 245.383 74.3022 245.471V245.471Z" fill="#1B506F" fill-opacity="0.3"/>
<path d="M78.2941 247.003C80.2584 247.209 82.0643 246.561 83.9652 246.208C86.1829 245.766 88.464 245.589 90.7135 245.559C91.3154 245.559 91.3154 244.676 90.7135 244.676C88.7492 244.705 86.8166 244.852 84.884 245.147C82.7296 245.501 80.5119 246.384 78.2941 246.149C77.6922 246.06 77.6922 246.944 78.2941 247.003V247.003Z" fill="#1B506F" fill-opacity="0.3"/>
<path d="M91.1254 242.348C91.157 243.851 91.1887 245.324 91.2521 246.826C91.2521 247.386 92.2026 247.386 92.2026 246.826C92.1709 245.324 92.1392 243.851 92.0758 242.348C92.0758 241.759 91.1254 241.759 91.1254 242.348V242.348Z" fill="#2A2A34"/>
<path d="M23.2308 248.977C23.2625 250.951 23.1992 252.925 23.0408 254.898C23.0091 255.458 23.9595 255.458 23.9912 254.898C24.1496 252.925 24.213 250.951 24.1813 248.977C24.1496 248.388 23.1992 248.388 23.2308 248.977V248.977Z" fill="#2A2A34"/>
<path d="M23.706 255.753C34.7947 257.049 45.9151 258.169 57.0672 259.17C57.6691 259.229 57.6691 258.345 57.0672 258.286C45.9151 257.285 34.7947 256.165 23.706 254.869C23.0724 254.81 23.1041 255.694 23.706 255.753V255.753Z" fill="#2A2A34"/>
<path d="M56.8771 252.866C56.7821 254.751 56.6553 256.607 56.5603 258.493C56.5286 259.052 57.4791 259.052 57.5107 258.493C57.6058 256.607 57.7325 254.751 57.8276 252.866C57.8592 252.306 56.9088 252.306 56.8771 252.866V252.866Z" fill="#2A2A34"/>
<path d="M57.3523 253.042C69.5816 252.6 81.8109 251.746 93.9767 250.538C94.5787 250.479 94.5787 249.595 93.9767 249.654C81.8109 250.862 69.5816 251.687 57.3523 252.159C56.7504 252.188 56.7504 253.072 57.3523 253.042V253.042Z" fill="#2A2A34"/>
<path d="M57.5107 259.406C69.5816 258.08 81.6841 256.931 93.8183 255.9C94.4203 255.841 94.4203 254.958 93.8183 255.016C81.7158 256.048 69.6133 257.226 57.5107 258.522C56.9088 258.581 56.9088 259.465 57.5107 259.406V259.406Z" fill="#2A2A34"/>
<path d="M93.5648 250.42C93.5648 252.011 93.5965 253.602 93.5965 255.193C93.5965 255.753 94.547 255.753 94.547 255.193C94.547 253.602 94.5153 252.011 94.5153 250.42C94.5153 249.831 93.5648 249.831 93.5648 250.42V250.42Z" fill="#2A2A34"/>
<path d="M23.8328 248.918C28.5851 248.329 33.3374 247.798 38.1214 247.386C38.7234 247.327 38.7234 246.443 38.1214 246.502C33.2741 246.915 28.4267 247.445 23.5794 248.064C22.9774 248.123 23.2309 248.977 23.8328 248.918V248.918Z" fill="#2A2A34"/>
<path d="M24.308 249.507C35.27 250.244 46.2003 251.305 57.0989 252.689C57.7009 252.778 57.9543 251.923 57.3524 251.835C46.3904 250.45 35.3651 249.36 24.308 248.624C23.7061 248.594 23.7061 249.478 24.308 249.507V249.507Z" fill="#2A2A34"/>
<path d="M85.3592 248.005C88.2106 248.506 91.0303 249.183 93.7866 250.067C94.3569 250.244 94.6104 249.39 94.0401 249.213C91.2837 248.358 88.4957 247.651 85.6127 247.151C85.0107 247.033 84.7573 247.887 85.3592 248.005V248.005Z" fill="#2A2A34"/>
<path d="M28.9969 253.573C34.6997 253.308 40.149 255.164 45.8201 255.252C46.422 255.252 46.422 254.368 45.8201 254.368C40.149 254.28 34.668 252.424 28.9969 252.689C28.395 252.718 28.395 253.602 28.9969 253.573V253.573Z" fill="#1B506F" fill-opacity="0.3"/>
<path d="M39.8955 252.424C44.0776 253.868 48.6081 252.984 52.9169 253.868C53.5188 253.985 53.7723 253.131 53.1703 253.013C48.8616 252.129 44.331 253.013 40.149 251.57C39.5787 251.363 39.3253 252.218 39.8955 252.424V252.424Z" fill="#1B506F" fill-opacity="0.3"/>
<path d="M59.38 256.283C69.8984 254.074 80.8287 253.838 91.5372 253.249C92.1392 253.219 92.1392 252.335 91.5372 252.365C80.702 252.984 69.74 253.19 59.1265 255.429C58.5246 255.547 58.778 256.401 59.38 256.283V256.283Z" fill="#1B506F" fill-opacity="0.3"/>
<path d="M76.9634 255.547C80.7019 255.635 84.4404 255.311 88.0838 254.574C88.6858 254.457 88.4323 253.602 87.8304 253.72C84.2503 254.427 80.6069 254.751 76.9634 254.663C76.3615 254.633 76.3615 255.517 76.9634 255.547V255.547Z" fill="#1B506F" fill-opacity="0.3"/>
<path d="M29.9474 256.224C29.9474 258.434 29.9474 260.614 29.9474 262.823C29.9474 263.383 30.8979 263.383 30.8979 262.823C30.8979 260.614 30.8979 258.434 30.8979 256.224C30.8979 255.664 29.9474 255.664 29.9474 256.224V256.224Z" fill="#2A2A34"/>
<path d="M30.2959 263.383C35.4284 264.797 41.0994 264.827 46.422 265.298C52.0614 265.799 57.7325 266.329 63.3719 266.83C63.9738 266.889 63.9738 266.005 63.3719 265.946C57.9226 265.445 52.4733 264.974 47.024 264.473C41.6064 263.972 35.7769 263.972 30.5493 262.529C29.9791 262.382 29.7256 263.236 30.2959 263.383V263.383Z" fill="#2A2A34"/>
<path d="M63.3402 259.995C63.3719 262.028 63.3719 264.031 63.3085 266.064C63.3085 266.624 64.259 266.624 64.259 266.064C64.3224 264.031 64.3224 262.028 64.2907 259.995C64.2907 259.406 63.3402 259.406 63.3402 259.995V259.995Z" fill="#2A2A34"/>
<path d="M58.2711 259.848C60.0136 259.995 61.7561 260.26 63.467 260.643C64.0689 260.791 64.3224 259.936 63.7204 259.789C61.9146 259.377 60.1087 259.111 58.2711 258.964C57.6375 258.935 57.6375 259.818 58.2711 259.848V259.848Z" fill="#2A2A34"/>
<path d="M63.9422 260.467C72.8132 259.789 81.6207 258.552 90.3333 256.696C90.9353 256.578 90.6818 255.723 90.0798 255.841C81.4623 257.668 72.7498 258.905 63.9422 259.583C63.3402 259.612 63.3402 260.496 63.9422 260.467V260.467Z" fill="#2A2A34"/>
<path d="M63.9422 266.948C74.0171 265.151 84.0286 262.941 93.8817 260.319C94.4837 260.172 94.2302 259.318 93.6283 259.465C83.7435 262.087 73.7636 264.326 63.6888 266.094C63.1185 266.211 63.3719 267.066 63.9422 266.948V266.948Z" fill="#2A2A34"/>
<path d="M93.4065 255.576C93.4382 257.049 93.4065 258.522 93.2798 259.966C93.2164 260.526 94.1669 260.526 94.2302 259.966C94.357 258.493 94.3886 257.02 94.357 255.576C94.357 255.016 93.4065 255.016 93.4065 255.576V255.576Z" fill="#2A2A34"/>
<path d="M90.3333 256.695C91.4105 256.695 92.4877 256.548 93.5332 256.312C94.1351 256.165 93.8817 255.311 93.2797 255.458C92.2976 255.694 91.3471 255.812 90.3333 255.812C89.7313 255.812 89.7313 256.695 90.3333 256.695V256.695Z" fill="#2A2A34"/>
<path d="M35.6185 261.38C43.2855 262.234 50.9209 263.059 58.5879 263.796C59.1899 263.855 59.1899 262.971 58.5879 262.912C50.9209 262.175 43.2538 261.38 35.6185 260.496C35.0165 260.437 35.0165 261.321 35.6185 261.38V261.38Z" fill="#1B506F" fill-opacity="0.3"/>
<path d="M32.6721 258.935C35.9037 259.229 39.1352 259.465 42.3668 259.612C42.9688 259.642 42.9688 258.758 42.3668 258.729C39.1352 258.581 35.9037 258.346 32.6721 258.051C32.0702 258.021 32.0702 258.905 32.6721 258.935V258.935Z" fill="#1B506F" fill-opacity="0.3"/>
<path d="M46.422 260.555C50.509 260.555 54.5643 260.82 58.6196 261.41C59.2216 261.498 59.475 260.644 58.8731 260.555C54.7544 259.966 50.6041 259.671 46.422 259.671C45.8201 259.671 45.7884 260.555 46.422 260.555V260.555Z" fill="#1B506F" fill-opacity="0.3"/>
<path d="M65.4946 263.413C70.0568 262.735 74.5874 261.969 79.1179 261.115C79.7198 260.997 79.4664 260.143 78.8644 260.26C74.3339 261.115 69.8034 261.881 65.2412 262.558C64.6392 262.647 64.8927 263.501 65.4946 263.413V263.413Z" fill="#1B506F" fill-opacity="0.3"/>
<path d="M74.1121 263.766C79.5931 262.057 85.2325 260.791 90.9353 260.025C91.5372 259.936 91.2838 259.082 90.6818 259.17C84.9474 259.936 79.3397 261.174 73.8587 262.912C73.2884 263.118 73.5419 263.972 74.1121 263.766V263.766Z" fill="#1B506F" fill-opacity="0.3"/>
<path d="M87.9888 259.229C89.5413 258.787 91.0937 258.522 92.7095 258.404C93.3114 258.375 93.3114 257.491 92.7095 257.521C91.0303 257.638 89.3512 257.904 87.7354 258.375C87.1651 258.552 87.4186 259.406 87.9888 259.229V259.229Z" fill="#1B506F" fill-opacity="0.3"/>
<path d="M37.1709 264.532C37.1392 266.624 37.0759 268.715 37.0442 270.807C37.0442 271.367 37.9946 271.367 37.9946 270.807C38.0263 268.715 38.0897 266.624 38.1214 264.532C38.1531 263.972 37.2026 263.972 37.1709 264.532V264.532Z" fill="#2A2A34"/>
<path d="M37.6144 271.397C49.907 272.929 62.2313 274.461 74.524 275.963C75.1259 276.051 75.1259 275.168 74.524 275.079C62.2313 273.547 49.907 272.015 37.6144 270.513C37.0125 270.424 37.0125 271.308 37.6144 271.397V271.397Z" fill="#2A2A34"/>
<path d="M64.7026 267.125C68.3777 267.655 72.0528 268.097 75.7596 268.421C76.3616 268.48 76.3616 267.596 75.7596 267.537C72.1479 267.213 68.5361 266.801 64.956 266.27C64.3541 266.182 64.1006 267.036 64.7026 267.125V267.125Z" fill="#2A2A34"/>
<path d="M75.8863 268.332C85.3275 267.508 93.9767 263.501 103.26 262.028C103.861 261.94 103.608 261.085 103.006 261.174C93.7866 262.617 85.2325 266.594 75.8863 267.419C75.2843 267.508 75.2843 268.391 75.8863 268.332V268.332Z" fill="#2A2A34"/>
<path d="M93.8183 260.467C97.0182 260.909 100.25 261.233 103.481 261.409C104.083 261.439 104.083 260.555 103.481 260.526C100.313 260.349 97.1766 260.054 94.0718 259.612C93.4698 259.524 93.2164 260.378 93.8183 260.467V260.467Z" fill="#2A2A34"/>
<path d="M74.7774 268.244C74.6824 270.542 74.619 272.87 74.524 275.168C74.4923 275.727 75.4427 275.727 75.4744 275.168C75.5695 272.87 75.6328 270.542 75.7279 268.244C75.7596 267.655 74.8091 267.655 74.7774 268.244V268.244Z" fill="#2A2A34"/>
<path d="M75.031 275.992C84.5039 273.871 93.8501 271.367 103.101 268.509C103.672 268.332 103.418 267.478 102.848 267.655C93.5967 270.513 84.2505 272.987 74.7775 275.138C74.1756 275.256 74.429 276.11 75.031 275.992V275.992Z" fill="#2A2A34"/>
<path d="M102.848 261.616C103.101 263.766 103.165 265.917 103.038 268.068C103.006 268.627 103.957 268.627 103.988 268.068C104.083 265.917 104.02 263.766 103.798 261.616C103.735 261.056 102.784 261.056 102.848 261.616V261.616Z" fill="#2A2A34"/>
<path d="M40.054 268.922C39.8322 268.951 39.6421 268.981 39.4203 268.981C38.8184 269.04 38.8184 269.806 39.4203 269.864C47.4676 270.66 55.4514 271.868 63.467 273.046C64.0689 273.135 64.3224 272.28 63.7204 272.192C55.6415 270.984 47.5626 269.776 39.4203 268.981C39.4203 269.275 39.4203 269.57 39.4203 269.864C39.6421 269.835 39.8322 269.806 40.054 269.806C40.6559 269.747 40.6559 268.863 40.054 268.922V268.922Z" fill="#2A2A34"/>
<path d="M42.5251 267.625C44.933 268.185 47.3408 268.715 49.7803 269.157C50.3823 269.275 50.6357 268.421 50.0338 268.303C47.5942 267.861 45.1864 267.36 42.7786 266.771C42.2083 266.653 41.9549 267.508 42.5251 267.625V267.625Z" fill="#1B506F" fill-opacity="0.3"/>
<path d="M52.5683 268.774C58.9364 269.688 65.2728 270.601 71.6409 271.514C72.2428 271.603 72.4963 270.748 71.8943 270.66C65.5263 269.747 59.1899 268.833 52.8218 267.92C52.2198 267.861 51.9664 268.715 52.5683 268.774V268.774Z" fill="#1B506F" fill-opacity="0.3"/>
<path d="M80.0367 270.1C85.3276 269.982 90.1116 267.596 95.3074 266.86C95.9094 266.771 95.6559 265.917 95.0539 266.005C89.9531 266.742 85.2642 269.099 80.0367 269.217C79.4347 269.246 79.4347 270.13 80.0367 270.1V270.1Z" fill="#1B506F" fill-opacity="0.3"/>
<path d="M78.3259 273.076C80.6387 272.545 82.9515 272.015 85.2643 271.455C85.8662 271.308 85.6128 270.454 85.0108 270.601C82.698 271.131 80.3853 271.662 78.0725 272.221C77.4705 272.339 77.724 273.194 78.3259 273.076V273.076Z" fill="#1B506F" fill-opacity="0.3"/>
<path d="M94.0718 269.128C96.7964 268.45 99.5211 267.773 102.246 267.066C102.848 266.918 102.594 266.064 101.992 266.211C99.2676 266.889 96.543 267.566 93.8183 268.274C93.2164 268.421 93.4698 269.275 94.0718 269.128V269.128Z" fill="#1B506F" fill-opacity="0.3"/>
<path d="M24.9733 274.608C30.0108 274.107 34.9848 273.135 39.8005 271.662C40.3708 271.485 40.1173 270.631 39.547 270.807C34.7947 272.251 29.9474 273.223 24.9733 273.724C24.3714 273.783 24.3714 274.667 24.9733 274.608V274.608Z" fill="#2A2A34"/>
<path d="M24.5932 274.519C24.6882 276.523 24.815 278.496 24.91 280.5C24.9417 281.059 25.8921 281.059 25.8605 280.5C25.7654 278.496 25.6387 276.523 25.5436 274.519C25.512 273.959 24.5615 273.959 24.5932 274.519V274.519Z" fill="#2A2A34"/>
<path d="M25.4486 281.089C40.0857 282.886 54.6911 284.683 69.3282 286.451C69.9301 286.539 69.9301 285.626 69.3282 285.567C54.6911 283.77 40.0857 281.973 25.4486 280.205C24.8466 280.117 24.8783 281.001 25.4486 281.089V281.089Z" fill="#2A2A34"/>
<path d="M25.1634 274.991C39.2936 276.847 53.4237 278.526 67.5856 280.058C68.1876 280.117 68.1876 279.233 67.5856 279.174C53.5188 277.672 39.452 275.992 25.4169 274.136C24.8466 274.077 24.5614 274.932 25.1634 274.991V274.991Z" fill="#2A2A34"/>
<path d="M69.3599 286.628C80.6703 283.593 91.9174 280.353 103.07 276.876C103.64 276.7 103.386 275.845 102.816 276.022C91.6323 279.469 80.4169 282.739 69.1064 285.773C68.5044 285.921 68.7579 286.775 69.3599 286.628V286.628Z" fill="#2A2A34"/>
<path d="M73.13 279.704C83.1732 277.613 93.058 274.961 102.753 271.721C103.323 271.544 103.069 270.689 102.499 270.866C92.8045 274.107 82.9197 276.758 72.8765 278.85C72.2746 278.968 72.528 279.822 73.13 279.704V279.704Z" fill="#2A2A34"/>
<path d="M102.182 271.455C102.214 273.135 102.246 274.784 102.277 276.464C102.277 277.023 103.228 277.023 103.228 276.464C103.196 274.784 103.165 273.135 103.133 271.455C103.101 270.896 102.151 270.896 102.182 271.455V271.455Z" fill="#2A2A34"/>
<path d="M94.9905 270.954C97.43 271.19 99.8379 271.426 102.277 271.632C102.879 271.691 102.879 270.807 102.277 270.748C99.8379 270.513 97.43 270.277 94.9905 270.071C94.3886 270.012 94.3886 270.896 94.9905 270.954V270.954Z" fill="#2A2A34"/>
<path d="M28.6167 279.41C35.6185 279.793 42.5568 280.588 49.4635 281.737C50.0655 281.826 50.3189 280.971 49.717 280.883C42.7469 279.705 35.7135 278.939 28.6167 278.526C27.9831 278.497 28.0148 279.38 28.6167 279.41V279.41Z" fill="#1B506F" fill-opacity="0.3"/>
<path d="M47.024 279.321C52.6317 280.087 58.2394 280.971 63.8155 281.943C64.4174 282.061 64.6709 281.207 64.0689 281.089C58.4929 280.117 52.8852 279.233 47.2775 278.467C46.6755 278.379 46.422 279.233 47.024 279.321V279.321Z" fill="#1B506F" fill-opacity="0.3"/>
<path d="M68.8846 281.443C68.9479 282.739 69.043 284.035 69.1063 285.302C69.138 285.862 70.0885 285.862 70.0568 285.302C69.9934 284.006 69.8984 282.71 69.835 281.443C69.8033 280.883 68.8529 280.883 68.8846 281.443V281.443Z" fill="#2A2A34"/>
<path d="M74.1755 281.708C78.8644 280.736 83.5217 279.646 88.1789 278.467C88.7809 278.32 88.5274 277.466 87.9255 277.613C83.2999 278.791 78.611 279.881 73.922 280.853C73.3201 280.971 73.5735 281.826 74.1755 281.708V281.708Z" fill="#1B506F" fill-opacity="0.3"/>
<path d="M74.0171 283.328C75.2527 283.21 76.4566 283.033 77.6288 282.709C78.2308 282.562 77.9773 281.708 77.3754 281.855C76.2665 282.15 75.1576 282.326 74.0171 282.444C73.4151 282.503 73.4151 283.387 74.0171 283.328V283.328Z" fill="#1B506F" fill-opacity="0.3"/>
<path d="M91.1253 278.644C94.0717 277.76 97.0182 276.876 99.9329 276.022C100.503 275.845 100.25 274.991 99.6795 275.168C96.733 276.051 93.7866 276.935 90.8719 277.79C90.3016 277.966 90.555 278.821 91.1253 278.644V278.644Z" fill="#1B506F" fill-opacity="0.3"/>
<path d="M96.8281 275.55C98.0954 275.197 99.3944 274.873 100.662 274.519C101.264 274.372 101.01 273.518 100.408 273.665C99.1409 274.018 97.8419 274.342 96.5747 274.696C96.0044 274.843 96.2262 275.698 96.8281 275.55V275.55Z" fill="#1B506F" fill-opacity="0.3"/>
<path d="M39.547 282.739C39.8639 285.037 39.9906 287.335 39.8955 289.662C39.8639 290.222 40.8143 290.222 40.846 289.662C40.941 287.335 40.8143 285.037 40.4975 282.739C40.4341 282.179 39.4837 282.179 39.547 282.739V282.739Z" fill="#2A2A34"/>
<path d="M40.7193 290.281C55.3564 292.048 69.9618 293.787 84.5989 295.554C85.2008 295.613 85.2008 294.729 84.5989 294.67C69.9618 292.903 55.3564 291.165 40.7193 289.397C40.1173 289.309 40.1173 290.192 40.7193 290.281V290.281Z" fill="#2A2A34"/>
<path d="M83.8702 288.071C84.0286 290.369 84.1553 292.697 84.3137 294.995C84.3454 295.554 85.2958 295.554 85.2642 294.995C85.1058 292.697 84.979 290.369 84.8206 288.071C84.7889 287.512 83.8385 287.482 83.8702 288.071V288.071Z" fill="#2A2A34"/>
<path d="M84.472 295.495C93.6281 291.371 102.816 287.276 111.972 283.151C112.511 282.916 112.035 282.15 111.497 282.385C102.341 286.51 93.1529 290.605 83.9968 294.729C83.4265 294.994 83.9334 295.76 84.472 295.495V295.495Z" fill="#2A2A34"/>
<path d="M84.3454 287.953C93.7233 284.83 102.848 281.118 111.687 276.817C112.226 276.552 111.75 275.786 111.212 276.051C102.468 280.293 93.4065 283.976 84.092 287.099C83.5217 287.305 83.7751 288.159 84.3454 287.953V287.953Z" fill="#2A2A34"/>
<path d="M110.832 276.464C110.895 278.673 110.958 280.883 111.022 283.063C111.053 283.623 112.004 283.623 111.972 283.063C111.909 280.853 111.845 278.644 111.782 276.464C111.782 275.875 110.832 275.875 110.832 276.464V276.464Z" fill="#2A2A34"/>
<path d="M103.133 275.992C105.762 276.022 108.392 276.198 110.99 276.552C111.592 276.64 111.845 275.786 111.243 275.698C108.55 275.344 105.858 275.138 103.133 275.108C102.531 275.108 102.531 275.992 103.133 275.992V275.992Z" fill="#2A2A34"/>
<path d="M69.8667 286.716C73.0666 287.246 76.2982 287.571 79.5614 287.688C80.1634 287.718 80.1634 286.834 79.5614 286.805C76.3932 286.687 73.2567 286.392 70.1202 285.862C69.5182 285.744 69.2648 286.598 69.8667 286.716V286.716Z" fill="#2A2A34"/>
<path d="M87.1334 289.279C90.6184 288.484 93.945 287.364 97.1766 285.921C97.7152 285.685 97.24 284.919 96.7014 285.155C93.5648 286.569 90.3016 287.629 86.9116 288.425C86.278 288.543 86.5314 289.397 87.1334 289.279V289.279Z" fill="#1B506F" fill-opacity="0.3"/>
<path d="M87.5137 291.577C90.3017 290.605 92.9946 289.456 95.5926 288.13C96.1312 287.865 95.6559 287.099 95.1173 287.364C92.5828 288.66 89.9849 289.78 87.2602 290.723C86.6899 290.929 86.9117 291.783 87.5137 291.577V291.577Z" fill="#1B506F" fill-opacity="0.3"/>
<path d="M98.8874 284.212C102.404 283.063 105.889 281.737 109.311 280.294C109.881 280.058 109.374 279.292 108.836 279.528C105.509 280.942 102.119 282.209 98.634 283.328C98.0637 283.534 98.3171 284.389 98.8874 284.212V284.212Z" fill="#1B506F" fill-opacity="0.3"/>
<path d="M100.25 286.156C103.703 284.772 106.998 283.122 110.166 281.207C110.673 280.883 110.198 280.146 109.691 280.441C106.554 282.356 103.228 284.006 99.7745 285.39C99.2042 285.626 99.6795 286.363 100.25 286.156V286.156Z" fill="#1B506F" fill-opacity="0.3"/>
<path d="M217.188 204.786C223.683 227.058 230.178 249.33 236.641 271.603C238.478 277.966 240.348 284.3 242.185 290.664C242.502 291.754 244.34 291.282 244.023 290.192C237.528 267.92 231.033 245.648 224.57 223.376C222.732 217.012 220.863 210.678 219.026 204.315C218.709 203.224 216.871 203.696 217.188 204.786V204.786Z" fill="#2A2A34"/>
<path d="M198.464 205.729C198.749 230.24 199.034 254.781 199.288 279.292C199.351 286.215 199.446 293.168 199.509 300.091C199.509 301.24 201.41 301.24 201.41 300.091C201.125 275.58 200.84 251.039 200.587 226.528C200.523 219.605 200.428 212.652 200.365 205.729C200.365 204.609 198.464 204.609 198.464 205.729V205.729Z" fill="#2A2A34"/>
<path d="M171.946 202.576C166.307 226.528 160.857 250.509 155.598 274.549C154.109 281.354 152.652 288.159 151.194 294.935C150.941 296.055 152.779 296.526 153.032 295.407C158.196 271.367 163.519 247.356 169.063 223.375C170.616 216.599 172.2 209.824 173.815 203.048C174.037 201.928 172.2 201.457 171.946 202.576V202.576Z" fill="#2A2A34"/>
<path d="M158.766 265.681C172.485 265.799 186.171 266.094 199.858 266.594C201.094 266.653 201.094 264.886 199.858 264.827C186.171 264.326 172.453 264.031 158.766 263.914C157.563 263.914 157.563 265.681 158.766 265.681V265.681Z" fill="#2A2A34"/>
<path d="M200.555 266.211C201.822 266.388 202.804 265.917 203.977 265.475C205.402 264.945 206.828 264.385 208.254 263.825C210.788 262.823 213.323 261.822 215.857 260.791C221.338 258.552 226.756 256.224 232.11 253.838C233.219 253.337 232.237 251.835 231.16 252.306C226.249 254.515 221.307 256.637 216.301 258.699C213.798 259.73 211.295 260.732 208.761 261.733C207.462 262.234 206.194 262.735 204.895 263.236C203.882 263.619 202.139 264.65 201.03 264.503C199.858 264.355 199.319 266.064 200.555 266.211V266.211Z" fill="#2A2A34"/>
<path d="M191.462 206.229C188.928 227.146 186.393 248.064 183.859 269.01C183.13 274.932 182.433 280.883 181.704 286.804C181.578 287.924 183.478 287.924 183.605 286.804C186.14 265.887 188.674 244.97 191.209 224.024C191.938 218.102 192.635 212.151 193.363 206.229C193.522 205.11 191.621 205.11 191.462 206.229V206.229Z" fill="#2A2A34"/>
<path d="M186.235 256.106C201.284 255.782 216.269 254.899 231.287 253.985C232.491 253.926 232.522 252.129 231.287 252.218C216.269 253.131 201.284 253.985 186.235 254.339C184.999 254.368 184.999 256.136 186.235 256.106V256.106Z" fill="#2A2A34"/>
<path d="M159.115 265.593C168.588 263.03 177.712 259.553 186.868 256.136C187.977 255.723 187.502 254.015 186.361 254.427C177.205 257.845 168.081 261.321 158.608 263.884C157.436 264.179 157.943 265.887 159.115 265.593V265.593Z" fill="#2A2A34"/>
<path d="M206.131 182.278C214.273 183.28 221.022 185.371 226.186 187.434C226.281 192.766 226.344 198.069 226.439 203.401C220.483 205.876 211.359 208.852 199.858 209.706C185.126 210.796 173.309 207.879 166.497 205.67C166.212 199.689 165.958 193.709 165.673 187.728C173.15 184.723 187.882 180.039 206.131 182.278Z" fill="white" stroke="#2A2A34" stroke-width="3"/>
<path d="M168.271 189.113C170.742 191.676 174.291 192.589 177.871 193.002C182.496 193.561 187.249 193.738 191.938 193.886C201.569 194.18 211.327 193.679 220.483 190.615C221.053 190.439 220.8 189.584 220.23 189.761C211.517 192.678 202.266 193.267 193.11 193.031C188.738 192.913 184.366 192.678 179.993 192.324C176.033 192 171.756 191.381 168.968 188.494C168.525 188.052 167.859 188.7 168.271 189.113V189.113Z" fill="#2A2A34"/>
<path d="M163.582 87.2378C161.428 87.4441 160.097 88.976 157.468 92.1578C150.371 100.701 145.238 108.214 144.795 108.862C143.876 110.188 140.74 114.194 134.435 122.208C122.807 137.026 120.115 139.766 121.128 143.626C122.301 148.133 127.591 152.14 131.488 151.492C133.769 151.109 135.132 149.194 137.191 145.982C139.852 141.799 143.274 136.143 146.918 129.101C156.422 123.091 162.663 116.787 166.56 112.22C174.481 102.94 174.227 98.9337 173.942 97.2839C173.055 92.0399 167.923 86.8548 163.582 87.2378Z" fill="white" stroke="#2A2A34" stroke-width="3"/>
<path opacity="0.09" d="M170.235 90.9499C168.683 91.1267 168.334 95.3101 167.733 97.9026C165.642 106.859 158.07 107.772 145.523 121.059C140.264 126.656 136.526 131.841 133.072 136.702C129.714 141.416 127.085 145.541 125.184 148.663C125.5 149.223 126.324 150.402 127.877 150.991C129.968 151.757 131.995 150.902 132.661 150.608C135.163 149.518 135.607 147.838 139.726 141.357C142.355 137.203 142.324 137.645 143.464 135.553C145.555 131.694 145.397 130.545 147.203 128.601C148.787 126.862 149.927 126.951 153 124.741C154.584 123.622 157.373 121.618 160.477 118.761C161.396 117.936 165.103 114.46 169 109.098C172.073 104.885 172.802 102.881 173.15 101.762C174.417 97.6964 173.625 95.3101 173.372 94.6325C172.802 93.13 171.439 90.8026 170.235 90.9499Z" fill="#1B506F" fill-opacity="0.3"/>
<path opacity="0.18" d="M147.203 128.188C146.791 127.952 145.143 130.398 141.405 134.375C132.059 144.244 125.025 147.308 126.039 149.812C126.641 151.256 129.556 151.757 131.647 151.344C134.625 150.755 136.209 148.045 139.314 142.653C146.918 129.425 147.456 128.335 147.203 128.188Z" fill="#1B506F" fill-opacity="0.3"/>
<path d="M119.798 258.611C120.685 267.802 121.54 276.994 122.427 286.186C108.646 292.608 102.056 296.674 102.721 298.412C103.513 300.533 115.299 299.09 138.015 294.052C137.571 281.266 137.128 268.45 136.716 255.665C131.076 256.637 125.437 257.609 119.798 258.611Z" fill="#2A2A34" stroke="#2A2A34" stroke-width="3"/>
<path d="M165.008 153.436C160.16 156.765 153.349 161.449 145.238 167.165C119.703 185.165 116.503 187.905 113.683 192.943C110.895 197.892 109.945 206.23 108.012 222.934C106.681 234.394 106.586 243.232 106.65 248.27C106.713 253.897 107.03 258.699 107.347 262.411C108.836 263.648 114.475 267.979 123.029 268.126C133.136 268.274 139.599 262.441 140.739 261.38C139.757 255.959 138.965 250.097 138.458 243.851C137.54 232.42 137.825 222.05 138.68 213.006C145.46 208.027 154.965 200.838 165.927 191.676C189.34 172.114 190.892 167.489 190.005 164.219C187.977 156.912 172.96 154.349 165.008 153.436Z" fill="white" stroke="#2A2A34" stroke-width="3"/>
<path opacity="0.12" d="M175.558 155.675C172.168 156.736 173.974 163.865 171.693 170.494C169.095 178.065 163.107 180.098 148.28 190.586C143.464 193.974 136.589 199.188 128.732 206.377C128.859 219.605 128.415 233.657 127.18 248.476C126.609 255.193 125.912 261.763 125.12 268.097C127.211 267.832 129.873 267.272 132.851 266.182C136.177 264.945 138.775 263.383 140.581 262.116C139.567 256.519 138.775 250.45 138.268 243.939C137.381 232.508 137.698 222.138 138.522 213.064C144.161 208.645 148.755 205.169 151.892 202.783C156.137 199.571 158.291 198.01 161.935 195.123C164.026 193.473 166.148 191.735 171.439 187.227C185.063 175.679 188.801 172.026 189.72 166.899C190.163 164.277 189.593 162.863 189.213 162.127C188.041 159.976 185.601 159.004 180.722 157.089C177.807 155.999 176.35 155.41 175.558 155.675Z" fill="#1B506F" fill-opacity="0.3"/>
<path opacity="0.15" d="M138.237 212.858C136.779 218.721 135.48 224.937 134.371 231.507C132.249 244.116 131.298 255.841 131.013 266.447C134.276 264.945 137.54 263.413 140.803 261.91C139.631 254.663 138.712 246.65 138.237 237.988C137.761 228.885 137.825 220.489 138.237 212.858Z" fill="#1B506F" fill-opacity="0.3"/>
<path opacity="0.09" d="M187.122 160.448C184.872 160.271 182.845 165.073 181.451 167.872C178.441 174 170.267 182.013 153.919 198.01C149.991 201.869 144.7 206.878 138.237 212.593C139.947 211.444 142.26 209.912 144.921 208.056C150.941 203.843 154.521 201.015 166.022 191.794C166.022 191.794 170.172 188.465 187.122 171.937C188.009 171.083 190.163 168.903 190.195 165.957C190.258 163.482 188.801 160.595 187.122 160.448Z" fill="#1B506F" fill-opacity="0.3"/>
<path d="M175.051 84.2034C174.924 84.2034 174.417 84.2328 173.72 84.2917C172.295 84.4096 170.045 84.6453 167.384 85.2934C165.23 85.7942 163.519 86.3835 162.505 86.7664C160.699 90.2133 158.418 95.5457 157.562 102.292C156.327 111.896 158.798 118.083 160.477 127.658C161.618 134.228 162.568 143.743 161.269 155.793C163.994 158.15 171.091 163.659 181.926 165.073C197.228 167.106 208.475 159.446 210.788 157.796C211.485 153.731 212.151 149.606 212.816 145.423C212.816 145.423 213.798 139.118 214.749 132.195C216.998 116.08 219.311 94.3673 219.596 91.6569C211.454 83.9971 204.705 82.2295 200.016 82.0822C193.933 81.876 179.993 83.9677 175.051 84.2034Z" fill="#1B506F"/>
<path opacity="0.17" d="M187.027 90.5965C188.706 92.2168 190.955 94.6915 192.983 98.05C202.741 114.136 196.69 132.902 193.997 141.239C192.128 147.073 188.579 155.646 181.546 164.867C184.239 165.309 187.597 165.544 191.431 165.191C200.587 164.337 207.208 160.389 210.535 158.061C212.816 144.009 214.939 129.602 216.84 114.872C217.822 107.271 218.709 99.7882 219.564 92.3346C218.138 90.6848 215.794 88.2985 212.277 86.2657C209.489 84.6454 205.466 82.2885 200.46 82.5242C192.603 82.9367 187.755 89.5948 187.027 90.5965Z" fill="#1B506F" fill-opacity="0.3"/>
<path d="M115.14 107.212C115.457 107.212 115.806 107.212 116.122 107.212C116.217 106.888 116.313 106.534 116.408 106.21C116.788 106.947 117.421 108.155 118.213 109.657C121.698 116.227 122.395 117.317 123.029 119.291C123.536 120.911 124.138 123.239 124.328 126.214C124.93 125.831 125.817 125.301 126.958 124.712C133.104 121.589 138.236 121.559 142.862 120.793C146.315 120.204 151.163 118.908 156.834 115.756C156.485 116.197 156.137 116.669 155.788 117.111C156.327 117.287 156.897 117.494 157.436 117.67C157.753 118.053 158.164 118.672 158.513 119.468C160.351 123.68 157.626 128.306 154.996 132.548C144.256 150.107 143.147 151.02 141.215 151.904C140.423 152.287 132.439 155.91 126.768 152.552C125.595 151.874 123.473 150.254 120.748 138.794C118.879 130.987 118.657 126.626 116.883 116.374C116.186 112.485 115.552 109.304 115.14 107.212Z" fill="white" stroke="#2A2A34" stroke-width="2"/>
<path d="M116.946 108.832C119.639 114.194 122.301 119.644 123.124 125.536C123.156 125.684 123.378 125.684 123.378 125.536C122.554 119.585 119.893 114.105 117.168 108.714C117.073 108.596 116.883 108.685 116.946 108.832V108.832Z" fill="#2A2A34"/>
<path d="M115.901 107.889C117.485 111.012 118.784 114.223 119.861 117.523C119.893 117.67 120.146 117.611 120.083 117.464C119.006 114.135 117.675 110.924 116.091 107.772C116.059 107.654 115.837 107.742 115.901 107.889V107.889Z" fill="#2A2A34"/>
<path d="M120.241 117.346C121.287 119.998 121.984 122.738 122.395 125.536C122.427 125.684 122.649 125.684 122.649 125.536C122.237 122.708 121.54 119.968 120.495 117.287C120.431 117.14 120.209 117.199 120.241 117.346V117.346Z" fill="#2A2A34"/>
<path d="M117.517 113.134C118.974 116.463 120.241 119.88 121.287 123.356C121.318 123.504 121.572 123.445 121.508 123.297C120.463 119.821 119.196 116.404 117.738 113.075C117.675 112.957 117.453 113.016 117.517 113.134V113.134Z" fill="#2A2A34"/>
<path d="M124.867 126.95C128.827 124.505 133.262 122.914 137.983 122.296C138.142 122.266 138.078 122.06 137.92 122.089C133.167 122.708 128.732 124.299 124.74 126.744C124.645 126.833 124.74 127.039 124.867 126.95V126.95Z" fill="#2A2A34"/>
<path d="M126.863 126.567C130.981 124.24 135.639 123.356 140.264 122.384C145.175 121.353 149.959 119.968 154.616 118.2C154.743 118.142 154.679 117.935 154.553 117.994C149.737 119.85 144.763 121.235 139.662 122.295C135.195 123.238 130.696 124.152 126.736 126.391C126.609 126.449 126.736 126.656 126.863 126.567V126.567Z" fill="#2A2A34"/>
<path d="M126.102 127.628C130.981 125.477 135.955 124.152 141.183 122.973C146.315 121.795 151.29 119.968 156.295 118.377C156.454 118.318 156.39 118.112 156.232 118.171C151.068 119.821 145.904 121.736 140.581 122.885C135.544 124.004 130.696 125.389 125.976 127.451C125.817 127.481 125.944 127.687 126.102 127.628V127.628Z" fill="#2A2A34"/>
<path d="M114.95 107.153C117.263 113.958 119.608 120.734 121.92 127.54C123.061 127.893 124.201 128.247 125.342 128.6C136.177 125.271 146.981 121.972 157.816 118.643C158.196 118.937 158.576 119.232 158.957 119.556C160.192 133.55 161.459 147.514 162.695 161.508C162.251 161.773 161.84 162.009 161.396 162.274C150.402 163.835 139.44 165.397 128.447 166.958C126.863 166.605 125.31 166.251 123.726 165.897C122.332 160.153 120.906 154.437 119.512 148.692C117.453 135.111 115.394 121.53 113.334 107.948C113.873 107.654 114.412 107.389 114.95 107.153Z" fill="white" stroke="#2A2A34" stroke-width="2"/>
<path d="M121.413 127.716C121.92 140.473 122.902 153.259 123.663 166.015C123.694 166.428 124.391 166.428 124.391 166.015C123.631 153.259 122.649 140.502 122.142 127.716C122.11 127.275 121.382 127.275 121.413 127.716V127.716Z" fill="#2A2A34"/>
<path d="M124.708 128.512C125.152 132.136 125.342 135.759 125.342 139.412C125.342 139.825 126.039 139.825 126.07 139.412C126.07 135.759 125.88 132.136 125.437 128.512C125.342 128.1 124.645 128.1 124.708 128.512V128.512Z" fill="#2A2A34"/>
<path opacity="0.16" d="M144.415 123.062C144.541 126.008 144.446 132.607 140.391 139.707C136.082 147.249 129.777 151.138 127.053 152.611C126.926 150.195 126.768 147.779 126.641 145.393C125.564 147.072 124.518 148.751 123.441 150.431C123.663 155.675 123.916 160.919 124.138 166.192C125.659 166.487 127.18 166.781 128.732 167.105C139.409 165.515 150.117 163.924 160.794 162.333C161.364 162.127 161.903 161.891 162.473 161.685C161.269 147.514 160.065 133.373 158.862 119.202C154.046 120.469 149.23 121.765 144.415 123.062Z" fill="#1B506F" fill-opacity="0.5"/>
<path opacity="0.1" d="M124.867 128.806C124.645 128.806 124.392 134.257 124.55 140.178C124.74 148.604 125.595 152.286 125.342 160.329C125.247 162.951 125.089 165.102 124.962 166.487C126.134 166.634 127.338 166.781 128.51 166.928C128.288 165.485 127.972 163.393 127.655 160.889C125.152 142.152 125.215 128.806 124.867 128.806Z" fill="#1B506F" fill-opacity="0.5"/>
<path d="M133.389 130.456C140.929 128.806 148.343 126.744 155.63 124.269C156.2 124.063 155.947 123.209 155.376 123.415C148.09 125.86 140.676 127.923 133.136 129.602C132.565 129.749 132.819 130.604 133.389 130.456V130.456Z" fill="#2A2A34"/>
<path d="M116.281 131.34C115.932 131.458 115.964 132.047 115.679 134.787C115.489 136.643 115.425 136.673 115.489 137.115C115.647 138.352 116.122 138.588 116.281 140.002C116.376 140.915 116.186 141.033 116.344 141.799C116.534 142.742 116.978 143.449 117.326 143.891C117.326 144.185 117.39 144.686 117.643 145.187C118.15 146.1 119.322 146.896 119.956 146.601C120.305 146.454 120.4 145.835 120.558 144.627C120.716 143.508 120.621 143.449 120.748 142.152C120.875 141.092 120.97 140.886 120.875 140.355C120.78 139.707 120.526 139.501 120.273 138.823C119.924 137.881 120.083 137.527 119.861 136.555C119.544 134.935 118.72 133.786 118.277 133.167C117.833 132.519 116.883 131.164 116.281 131.34Z" fill="white"/>
<path d="M116.059 131.075C114.348 134.522 116.059 138.382 119.924 139.648C120.368 139.796 120.558 139.148 120.114 139C116.693 137.881 115.172 134.463 116.693 131.399C116.851 131.016 116.249 130.692 116.059 131.075V131.075Z" fill="#2A2A34"/>
<path d="M116.186 131.606C118.467 133.579 119.798 136.172 119.988 139.059C120.02 139.472 120.717 139.472 120.717 139.059C120.526 135.995 119.132 133.226 116.693 131.134C116.344 130.84 115.837 131.311 116.186 131.606V131.606Z" fill="#2A2A34"/>
<path d="M115.235 135.2C114.412 138.647 116.598 141.917 120.368 142.653C120.811 142.742 121.002 142.093 120.558 142.005C117.2 141.357 115.172 138.499 115.932 135.347C116.027 134.934 115.33 134.758 115.235 135.2V135.2Z" fill="#2A2A34"/>
<path d="M115.932 139.531C115.267 142.153 116.978 144.657 119.829 145.157C120.273 145.246 120.463 144.598 120.019 144.509C117.548 144.097 116.027 142.005 116.598 139.707C116.724 139.295 116.059 139.118 115.932 139.531V139.531Z" fill="#2A2A34"/>
<path d="M116.851 143.743C116.724 145.01 117.516 146.277 118.784 146.748C119.322 146.955 120.019 146.984 120.431 146.542C120.875 146.071 120.685 145.364 120.431 144.863C120.273 144.48 119.576 144.657 119.734 145.04C119.893 145.364 120.209 146.012 119.703 146.218C119.322 146.365 118.72 146.012 118.435 145.806C117.77 145.305 117.453 144.539 117.548 143.743C117.612 143.301 116.883 143.331 116.851 143.743V143.743Z" fill="#2A2A34"/>
<path d="M120.114 145.128C120.811 145.128 121.097 144.48 121.192 143.92C121.318 143.243 121.192 142.536 120.811 141.946C120.59 141.563 119.956 141.917 120.209 142.271C120.431 142.624 120.558 143.007 120.558 143.39C120.558 143.596 120.495 144.451 120.114 144.451C119.671 144.451 119.671 145.128 120.114 145.128V145.128Z" fill="#2A2A34"/>
<path d="M121.001 142.417C121.445 142.034 121.445 141.298 121.35 140.768C121.255 140.09 120.938 139.501 120.431 139C120.114 138.676 119.607 139.147 119.924 139.471C120.241 139.795 120.495 140.178 120.59 140.65C120.653 140.974 120.748 141.681 120.463 141.946C120.146 142.241 120.653 142.712 121.001 142.417V142.417Z" fill="#2A2A34"/>
<path d="M153.982 237.31C155.155 243.91 156.295 250.538 157.468 257.137C144.446 265.74 138.395 270.807 139.314 272.398C140.391 274.254 151.036 271.279 171.249 263.472C170.521 252.689 169.792 241.936 169.031 231.153C164.026 233.215 158.988 235.248 153.982 237.31Z" fill="#2A2A34" stroke="#2A2A34" stroke-width="3"/>
<path d="M210.947 157.59C211.454 161.508 211.644 167.783 209.141 174.854C208.064 177.859 206.258 182.779 201.505 187.404C198.464 190.35 193.141 195.535 185.379 195.329C179.106 195.152 174.671 191.587 173.055 190.144C172.58 195.682 172.326 201.692 172.453 208.144C172.643 218.073 173.689 227.058 175.083 234.895C171.281 241.435 163.994 245.471 156.295 245.265C146.41 245 140.803 237.9 140.169 237.075C137.888 217.13 137.698 200.543 138.11 188.229C138.458 178.183 139.219 169.875 145.745 163.128C152.113 156.529 160.541 155.027 162.758 154.673C178.98 151.992 191.24 162.628 192.698 163.953C195.042 164.101 199.636 164.042 204.579 161.832C207.493 160.506 209.584 158.857 210.947 157.59Z" fill="white" stroke="#2A2A34" stroke-width="3"/>
<path d="M173.562 181.571C172.675 185.253 172.2 188.995 172.104 192.766C172.104 193.326 173.055 193.326 173.055 192.766C173.15 189.054 173.594 185.401 174.449 181.806C174.607 181.247 173.689 181.011 173.562 181.571V181.571Z" fill="#2A2A34"/>
<path d="M173.784 186.285C174.227 185.371 174.639 184.458 175.083 183.515C175.336 182.985 174.512 182.543 174.259 183.073C173.815 183.987 173.404 184.9 172.96 185.843C172.707 186.344 173.53 186.785 173.784 186.285V186.285Z" fill="#2A2A34"/>
<path d="M191.526 163.511C193.648 165.397 195.106 168.107 196.69 170.405C197.007 170.876 197.83 170.435 197.514 169.963C195.866 167.606 194.377 164.867 192.191 162.893C191.747 162.48 191.082 163.099 191.526 163.511V163.511Z" fill="#2A2A34"/>
<path opacity="0.09" d="M200.84 162.893C200.904 164.307 200.904 166.251 200.65 168.579C200.048 174.029 199.541 178.654 196.31 180.658C192.54 183.015 186.805 180.776 184.682 179.921C177.332 177.034 176.477 172.202 172.263 171.849C167.289 171.437 162.125 177.623 159.654 182.484C153.539 194.416 160.477 203.755 161.238 225.173C161.523 233.775 160.699 240.728 160.065 244.97C161.713 244.794 163.867 244.352 166.18 243.321C171.534 240.934 174.227 236.839 175.241 235.072C175.019 233.451 174.703 230.947 174.259 227.913C173.182 220.518 172.833 219.723 172.485 216.541C172.326 215.097 172.2 213.477 172.485 202.989C172.58 199.896 172.675 195.624 172.865 190.527C173.72 191.087 174.893 191.794 176.413 192.53C177.459 193.031 181.134 194.828 184.492 195.27C189.847 195.977 194.409 193.178 196.722 191.794C203.026 187.934 205.751 182.514 207.557 178.772C211.58 170.494 211.707 162.716 211.295 157.885C210.186 159.004 208.127 160.801 204.991 161.921C203.406 162.51 201.981 162.775 200.84 162.893Z" fill="#1B506F" fill-opacity="0.3"/>
<path opacity="0.11" d="M210.091 163.983C209.363 163.747 207.177 167.724 206.923 168.196C204.864 171.996 204.927 174.441 204.167 176.798C202.678 181.512 197.862 186.255 192.951 187.434C184.682 189.407 177.744 180.893 174.037 183.574C172.295 184.841 172.39 187.728 173.055 189.437C174.956 194.357 183.573 194.71 184.682 194.74C192.191 194.975 197.704 190.645 199.446 189.231C210.598 180.275 211.422 164.425 210.091 163.983Z" fill="#1B506F" fill-opacity="0.3"/>
<path opacity="0.11" d="M173.625 183.221C173.087 183.132 171.408 188.082 170.267 192.943C167.954 202.841 168.239 210.472 168.303 214.184C168.398 221.078 167.764 230.947 164.564 243.497C165.863 243.203 167.859 242.554 169.887 241.111C172.992 238.901 174.322 236.132 174.797 234.895C174.164 228.443 173.72 222.963 173.403 218.78C172.643 208.675 172.263 203.519 172.421 198.805C172.77 189.407 174.227 183.338 173.625 183.221Z" fill="#1B506F" fill-opacity="0.3"/>
<path d="M159.369 135.023C159.654 134.257 161.555 134.257 162.062 134.257C164.279 134.257 166.053 135.612 166.624 136.761C166.782 137.085 166.814 137.35 166.814 137.498C166.877 138.293 166.37 139.088 165.927 139.354C164.279 140.326 158.798 136.525 159.369 135.023Z" fill="white" stroke="#2A2A34" stroke-width="3"/>
<path d="M217.156 89.6535C222.194 92.5407 221.592 100.701 220.832 110.924C219.976 122.208 217.061 130.132 215.953 133.02C213.988 137.998 211.802 142.035 209.996 144.922C203.47 147.514 193.078 150.578 180.215 150.048C175.558 149.842 171.408 149.223 167.828 148.428C163.551 151.167 160.097 151.138 158.608 150.991C156.295 150.784 153.254 149.812 153.286 148.869C153.286 148.221 154.775 147.691 155.44 147.455C157.056 146.866 158.481 146.925 158.481 146.866C158.481 146.807 157.309 146.866 156.074 146.748C155.25 146.66 153.634 146.542 152.24 145.864C151.733 145.629 149.23 144.48 148.755 142.241C148.311 140.208 149.642 137.91 152.082 136.555C154.331 135.995 158.291 135.318 163.075 136.113C166.624 136.702 169.348 137.881 171.154 138.794C179.677 136.85 188.199 134.876 196.69 132.931C196.848 131.281 197.133 128.866 197.482 125.89C198.591 116.492 199.129 111.778 199.985 107.801C202.076 98.0203 203.438 91.6274 208.761 89.3884C211.137 88.4162 214.59 88.1805 217.156 89.6535Z" fill="white" stroke="#2A2A34" stroke-width="3"/>
<path opacity="0.18" d="M212.182 88.9759C213.228 95.0153 214.178 103.942 213.323 114.666C212.372 126.479 211.834 132.371 207.335 137.262C200.587 144.598 186.045 148.28 174.734 145.305C170.362 144.156 164.057 141.534 156.327 143.007C154.109 143.419 150.719 144.391 150.783 145.157C150.846 145.747 153.127 146.336 154.743 146.513C155.978 146.63 156.771 146.542 156.834 146.778C157.024 147.338 153.444 148.28 153.539 149.252C153.602 150.077 156.422 150.725 158.735 150.784C160.509 150.843 163.646 150.637 167.447 148.604C170.806 149.341 174.639 149.96 178.853 150.195C192.318 150.961 203.343 147.691 210.218 144.922C211.612 142.594 213.386 139.324 215.097 135.259C220.388 122.767 220.99 112.368 221.085 109.539C221.275 105.297 221.117 99.3461 219.628 92.305C219.406 91.8631 218.455 90.1838 216.269 89.3C214.432 88.5635 212.753 88.8581 212.182 88.9759Z" fill="#1B506F" fill-opacity="0.3"/>
<path opacity="0.21" d="M203.723 145.069C198.812 145.776 195.961 146.513 193.743 146.925C184.746 148.693 177.459 147.897 174.893 147.603C172.263 147.338 170.109 146.925 168.62 146.631C166.814 147.308 164.121 148.163 160.762 148.516C156.454 148.958 153.381 148.369 153.285 148.87C153.19 149.341 155.82 150.578 158.608 150.873C162.853 151.315 166.307 149.4 167.859 148.398C169.823 148.899 172.643 149.547 176.096 149.93C194.44 152.022 210.567 144.951 210.376 144.303C210.345 144.097 208.127 144.421 203.723 145.069Z" fill="#1B506F" fill-opacity="0.3"/>
<path d="M150.656 145.128C153.634 143.95 156.866 143.714 160.002 144.392C160.604 144.509 160.857 143.655 160.256 143.537C156.834 142.801 153.412 143.066 150.181 144.362C149.61 144.598 150.117 145.364 150.656 145.128V145.128Z" fill="#2A2A34"/>
<path d="M148.977 142.3C152.493 141.121 156.169 140.738 159.875 141.18C160.477 141.239 160.477 140.355 159.875 140.296C156.105 139.854 152.303 140.237 148.723 141.445C148.153 141.652 148.406 142.506 148.977 142.3V142.3Z" fill="#2A2A34"/>
<path d="M149.864 139.295C153.349 138.352 156.897 137.999 160.509 138.234C161.111 138.264 161.111 137.38 160.509 137.35C156.834 137.115 153.159 137.498 149.61 138.44C149.008 138.588 149.262 139.442 149.864 139.295V139.295Z" fill="#2A2A34"/>
<path d="M166.624 42.546C157.784 49.2041 158.133 62.756 161.618 71.5058C163.804 77.0445 167.352 80.8449 169.633 82.9366C170.204 85.1756 170.742 87.4441 171.312 89.6831C174.1 90.2428 177.776 90.6847 182.053 90.3312C191.684 89.5063 198.464 85.1461 201.474 82.8777C199.351 77.9872 197.228 73.0967 195.106 68.1768C194.821 66.3797 194.409 63.6104 193.902 60.2519C192.603 51.4431 192.666 50.9718 192.096 49.5576C191.842 48.9684 188.262 40.5427 179.867 39.0402C173.055 37.8323 167.447 41.8979 166.624 42.546Z" fill="white" stroke="#2A2A34" stroke-width="3"/>
<path d="M159.337 65.0833C158.83 66.9393 158.291 69.8265 158.672 73.3323C158.925 75.6597 159.337 79.6958 162.473 83.5846C165.863 87.7975 170.457 89.3883 172.39 89.9776C172.231 89.5062 172.073 88.917 171.978 88.2394C171.883 87.5029 171.915 86.8547 171.978 86.3539C174.069 87.385 176.16 88.4456 178.219 89.4767C183.479 84.9987 185.221 80.9331 185.823 77.9576C186.298 75.6302 186.583 71.3584 187.724 63.5808C187.914 62.1961 188.326 59.692 190.037 59.0733C190.829 58.7787 191.906 58.8965 192.635 59.4563C194.726 61.0766 192.603 65.702 193.047 65.8493C193.49 65.9671 197.133 61.3123 195.898 55.9505C195.264 53.1812 193.522 51.2662 192.508 50.3235C190.227 53.6525 187.692 57.07 184.904 60.5758C183.13 62.8148 181.356 64.936 179.613 66.9688C178.948 67.2928 177.966 67.6758 176.825 67.5874C175.938 67.5285 175.621 67.2339 174.956 67.0571C172.485 66.409 171.154 69.0899 168.746 68.7364C166.75 68.4418 166.56 66.4679 164.374 66.409C163.329 66.3796 162.885 66.8215 161.808 66.6152C160.668 66.3796 159.875 65.6725 159.337 65.0833Z" fill="#2A2A34" stroke="#2A2A34" stroke-width="3"/>
<path d="M169.538 57.2173C168.778 60.4286 168.303 63.6692 168.113 66.9394C168.081 67.2929 168.524 67.4697 168.841 67.3224C170.077 66.7331 171.313 66.1439 172.58 65.5547C173.118 65.2896 172.643 64.5236 172.105 64.7887C170.869 65.378 169.633 65.9672 168.366 66.5564C168.62 66.6742 168.841 66.8215 169.095 66.9394C169.317 63.7282 169.76 60.5759 170.489 57.453C170.584 56.8933 169.665 56.6576 169.538 57.2173V57.2173Z" fill="#2A2A34"/>
<path d="M164.564 59.0146C164.913 59.5154 164.976 60.2814 164.691 60.4287C164.343 60.6055 163.36 59.9279 163.234 59.1619C163.202 58.9262 163.234 58.5138 163.456 58.3959C163.772 58.2486 164.311 58.6316 164.564 59.0146Z" fill="#2A2A34" stroke="#2A2A34" stroke-width="3"/>
<path d="M162.917 55.98C164.026 55.4497 165.356 55.5381 166.37 56.2746C166.845 56.6281 167.511 56.0094 167.036 55.6559C165.705 54.6542 163.962 54.4775 162.442 55.214C161.903 55.4791 162.378 56.2451 162.917 55.98V55.98Z" fill="#2A2A34"/>
<path d="M173.974 56.422C175.558 55.4498 177.712 55.7739 178.79 57.2469C179.138 57.7183 179.962 57.2763 179.613 56.805C178.251 54.9784 175.526 54.4187 173.499 55.656C172.992 55.9801 173.467 56.7461 173.974 56.422V56.422Z" fill="#2A2A34"/>
<path d="M152.367 50.7948C165.008 51.4724 177.649 52.4741 190.227 53.7409C192.064 53.9176 192.033 51.2662 190.227 51.0894C177.649 49.8226 165.008 48.8209 152.367 48.1433C150.529 48.055 150.529 50.7064 152.367 50.7948V50.7948Z" fill="#2A2A34"/>
<path d="M160.572 48.9977C160.762 47.2006 161.555 42.5753 165.42 38.8337C170.457 33.9433 179.74 31.881 186.963 36.035C192.635 39.3051 195.644 45.6097 194.631 52.0321C183.257 51.0305 171.915 49.9993 160.572 48.9977Z" fill="#2A2A34"/>
<path opacity="0.69" d="M176.54 34.739C175.051 35.8879 175.051 38.2743 175.59 40.8373C176.16 43.6361 177.617 47.0535 179.835 50.5299C184.746 51.0602 189.688 51.5905 194.599 52.1208C194.821 51.1486 195.011 49.705 194.821 47.9668C194.821 47.9668 194.504 44.8145 192.698 41.9568C189.086 36.3004 179.645 32.3232 176.54 34.739Z" fill="#2A2A34"/>
<path opacity="0.24" d="M191.969 67.2338C190.86 67.7936 189.752 67.6463 189.371 67.5873C189.847 68.4417 190.829 70.2683 191.526 72.8313C192.159 75.2471 193.078 78.5467 191.874 82.3471C190.797 85.7351 188.516 87.9741 186.964 89.2115C188.864 88.8874 191.367 88.2687 194.124 87.0019C197.324 85.5289 199.605 83.7612 201.094 82.4061C198.749 76.2488 196.436 70.0915 194.092 63.9342C194.092 64.0521 193.965 66.2616 191.969 67.2338Z" fill="#1B506F" fill-opacity="0.3"/>
<path opacity="0.19" d="M180.881 52.7393C181.229 54.1535 181.546 56.2746 181.166 58.7788C180.532 62.9917 178.346 65.9083 177.174 67.234C177.871 67.0278 178.568 66.8216 179.265 66.6153C180.659 65.0539 182.053 63.4041 183.447 61.6954C185.728 58.8966 187.851 56.1568 189.752 53.4759C186.805 53.2696 183.827 53.0045 180.881 52.7393Z" fill="#1B506F" fill-opacity="0.3"/>
<path d="M176.572 59.2794C176.92 59.7802 176.984 60.5462 176.699 60.6935C176.35 60.8703 175.368 60.1927 175.241 59.4267C175.209 59.191 175.241 58.7786 175.463 58.6607C175.78 58.5134 176.287 58.8964 176.572 59.2794Z" fill="#2A2A34" stroke="#2A2A34" stroke-width="3"/>
<ellipse cx="162.695" cy="61.3125" rx="5.73444" ry="5.33238" stroke="#2A2A34" stroke-width="2"/>
<ellipse cx="176.033" cy="61.3125" rx="5.73444" ry="5.33238" stroke="#2A2A34" stroke-width="2"/>
<path d="M169.095 61.4892C169.222 61.3419 169.475 61.2829 169.633 61.4008C169.823 61.5481 170.109 61.5775 170.299 61.4008C170.457 61.2535 170.489 60.9294 170.299 60.7821C169.76 60.3402 168.905 60.3402 168.429 60.8705C168.271 61.0473 168.239 61.3124 168.429 61.4892C168.588 61.6659 168.936 61.6659 169.095 61.4892V61.4892Z" fill="#2A2A34"/>
<path d="M157.436 61.6657C158.038 61.3711 158.64 61.047 159.21 60.6935C159.717 60.3989 159.242 59.6329 158.735 59.9275C158.165 60.2811 157.563 60.6051 156.961 60.8997C156.39 61.1649 156.897 61.9309 157.436 61.6657V61.6657Z" fill="#2A2A34"/>
<path d="M182.116 61.5774C184.746 60.9587 187.407 60.3695 190.037 59.7508C190.639 59.6035 190.385 58.7491 189.783 58.8964C187.154 59.5151 184.492 60.1043 181.863 60.723C181.261 60.8703 181.514 61.7247 182.116 61.5774V61.5774Z" fill="#2A2A34"/>
</svg>
